<svg width="66" height="53" viewBox="0 0 66 53" fill="none" xmlns="http://www.w3.org/2000/svg">
<path opacity="0.6" d="M63.4194 0.56543H2.55764C1.26286 0.56543 0.216797 1.61149 0.216797 2.90627V14.6105H65.7603V2.90627C65.7603 1.61149 64.7142 0.56543 63.4194 0.56543ZM0.216797 49.723C0.216797 51.0178 1.26286 52.0639 2.55764 52.0639H63.4194C64.7142 52.0639 65.7603 51.0178 65.7603 49.723V21.0478H0.216797V49.723ZM42.5714 36.2632C42.5714 35.9413 42.8347 35.678 43.1566 35.678H55.2265C55.5484 35.678 55.8117 35.9413 55.8117 36.2632V41.5301C55.8117 41.852 55.5484 42.1153 55.2265 42.1153H43.1566C42.8347 42.1153 42.5714 41.852 42.5714 41.5301V36.2632Z" fill="#7A897F"/>
</svg>
