<svg width="528" height="295" viewBox="0 0 528 295" fill="none" xmlns="http://www.w3.org/2000/svg">
<g clip-path="url(#clip0_2020_48639)">
<path d="M178.788 70.1349V61.8125C178.788 61.0006 178.131 60.3348 177.312 60.3348H175.172C174.548 60.3348 173.989 59.9126 173.851 59.2955C173.113 56.064 171.849 53.0274 170.146 50.2993C169.806 49.7553 169.871 49.0489 170.325 48.5943L171.832 47.0841C172.408 46.5076 172.408 45.5739 171.832 44.9974L165.955 39.1109C165.38 38.5344 164.447 38.5344 163.872 39.1109L162.372 40.6129C161.918 41.0676 161.213 41.1326 160.67 40.7916C157.938 39.0865 154.914 37.8199 151.688 37.081C151.08 36.943 150.65 36.3828 150.65 35.7576V33.6222C150.65 32.8103 149.993 32.1445 149.175 32.1445H140.866C140.055 32.1445 139.39 32.8021 139.39 33.6222V35.7576C139.39 36.3828 138.969 36.943 138.353 37.081C135.126 37.8199 132.094 39.0865 129.362 40.7916C128.819 41.1326 128.114 41.0676 127.66 40.6129L126.16 39.1109C125.585 38.5344 124.653 38.5344 124.077 39.1109L118.2 44.9974C117.624 45.5739 117.624 46.5076 118.2 47.0841L119.7 48.5861C120.153 49.0408 120.218 49.7472 119.878 50.2912C118.175 53.0274 116.919 56.0559 116.173 59.2874C116.035 59.8964 115.476 60.3267 114.852 60.3267H112.712C111.901 60.3267 111.236 60.9844 111.236 61.8044V70.1268C111.236 70.9387 111.893 71.6045 112.712 71.6045H114.852C115.476 71.6045 116.035 72.0267 116.173 72.6437C116.911 75.8752 118.175 78.9119 119.878 81.64C120.218 82.184 120.153 82.8904 119.7 83.345L118.192 84.8552C117.616 85.4317 117.616 86.3654 118.192 86.9419L124.069 92.8284C124.644 93.4049 125.577 93.4049 126.152 92.8284L127.66 91.3182C128.114 90.8635 128.819 90.7986 129.362 91.1396C132.086 92.8447 135.118 94.1032 138.344 94.842C138.952 94.9801 139.382 95.5403 139.382 96.1655V98.309C139.382 99.1209 140.039 99.7867 140.857 99.7867H149.167C149.977 99.7867 150.642 99.129 150.642 98.309V96.1655C150.642 95.5403 151.072 94.9801 151.68 94.842C154.906 94.1032 157.93 92.8365 160.662 91.1396C161.205 90.7986 161.91 90.8635 162.364 91.3182L163.872 92.8284C164.447 93.4049 165.38 93.4049 165.955 92.8284L171.832 86.9419C172.408 86.3654 172.408 85.4317 171.832 84.8552L170.325 83.345C169.871 82.8904 169.806 82.184 170.146 81.64C171.849 78.9119 173.105 75.8752 173.851 72.6437C173.989 72.0348 174.548 71.6045 175.172 71.6045H177.312C178.131 71.6045 178.788 70.9468 178.788 70.1349ZM145.032 89.4345C132.094 89.4345 121.621 78.92 121.621 65.9615C121.621 53.0193 132.094 42.5129 145.032 42.5129C157.97 42.5129 168.444 53.0274 168.444 65.9615C168.444 78.92 157.97 89.4345 145.032 89.4345Z" stroke="#FCFBDE" stroke-width="0.7896" stroke-miterlimit="10"/>
<path d="M217.001 98.3008V92.6254C217.001 92.0733 216.555 91.6186 215.996 91.6186H214.537C214.107 91.6186 213.734 91.3263 213.637 90.9122C213.134 88.7119 212.275 86.6415 211.116 84.7821C210.881 84.4086 210.929 83.9296 211.237 83.6211L212.259 82.598C212.648 82.2083 212.648 81.5669 212.259 81.1772L208.254 77.1662C207.865 76.7765 207.225 76.7765 206.835 77.1662L205.814 78.1892C205.506 78.4978 205.028 78.5465 204.655 78.311C202.798 77.15 200.731 76.2893 198.534 75.7859C198.121 75.6885 197.829 75.315 197.829 74.8847V73.4313C197.829 72.8792 197.383 72.4245 196.824 72.4245H191.158C190.606 72.4245 190.152 72.8711 190.152 73.4313V74.8847C190.152 75.315 189.86 75.6885 189.447 75.7859C187.25 76.2893 185.183 77.15 183.327 78.311C182.954 78.5465 182.475 78.4978 182.167 78.1892L181.146 77.1662C180.757 76.7765 180.116 76.7765 179.727 77.1662L175.723 81.1772C175.334 81.5669 175.334 82.2083 175.723 82.598L176.744 83.6211C177.052 83.9296 177.101 84.4086 176.866 84.7821C175.707 86.6415 174.847 88.7119 174.345 90.9122C174.247 91.3263 173.874 91.6186 173.445 91.6186H171.986C171.434 91.6186 170.98 92.0652 170.98 92.6254V98.3008C170.98 98.853 171.426 99.3076 171.986 99.3076H173.445C173.874 99.3076 174.247 99.5999 174.345 100.014C174.847 102.214 175.707 104.285 176.866 106.144C177.101 106.518 177.052 106.997 176.744 107.305L175.723 108.328C175.334 108.718 175.334 109.359 175.723 109.749L179.727 113.76C180.116 114.15 180.757 114.15 181.146 113.76L182.176 112.729C182.484 112.42 182.962 112.372 183.335 112.607C185.191 113.768 187.258 114.629 189.455 115.132C189.869 115.23 190.16 115.603 190.16 116.033V117.495C190.16 118.047 190.606 118.502 191.166 118.502H196.832C197.383 118.502 197.837 118.055 197.837 117.495V116.033C197.837 115.603 198.129 115.23 198.543 115.132C200.739 114.629 202.807 113.768 204.663 112.607C205.036 112.372 205.514 112.42 205.822 112.729L206.852 113.76C207.241 114.15 207.881 114.15 208.27 113.76L212.275 109.749C212.664 109.359 212.664 108.718 212.275 108.328L211.245 107.297C210.937 106.989 210.889 106.509 211.124 106.136C212.283 104.277 213.142 102.206 213.645 100.006C213.742 99.5918 214.115 99.2995 214.545 99.2995H216.004C216.555 99.3076 217.001 98.8611 217.001 98.3008ZM193.995 110.553C185.678 110.553 178.941 103.79 178.941 95.4591C178.941 87.1367 185.678 80.3815 193.995 80.3815C202.312 80.3815 209.049 87.1449 209.049 95.4591C209.057 103.798 202.32 110.553 193.995 110.553Z" fill="#FCFBDE"/>
<path d="M110.377 248.468C111.895 248.468 113.125 247.236 113.125 245.716C113.125 244.195 111.895 242.963 110.377 242.963C108.859 242.963 107.629 244.195 107.629 245.716C107.629 247.236 108.859 248.468 110.377 248.468Z" fill="#A4FFAD"/>
<path d="M478.111 173.348C479.629 173.348 480.859 172.116 480.859 170.595C480.859 169.075 479.629 167.843 478.111 167.843C476.594 167.843 475.363 169.075 475.363 170.595C475.363 172.116 476.594 173.348 478.111 173.348Z" fill="#A4FFAD"/>
<path d="M472.623 75.177C474.141 75.177 475.371 73.9447 475.371 72.4245C475.371 70.9044 474.141 69.6721 472.623 69.6721C471.105 69.6721 469.875 70.9044 469.875 72.4245C469.875 73.9447 471.105 75.177 472.623 75.177Z" fill="#A4FFAD"/>
<path d="M373.926 40.7834C374.875 40.7834 375.644 40.0128 375.644 39.0622C375.644 38.1115 374.875 37.3409 373.926 37.3409C372.976 37.3409 372.207 38.1115 372.207 39.0622C372.207 40.0128 372.976 40.7834 373.926 40.7834Z" fill="#A4FFAD"/>
<path d="M121.117 16.0925C121.117 17.0425 120.347 17.8138 119.398 17.8138C118.45 17.8138 117.68 17.0425 117.68 16.0925C117.68 15.1426 118.45 14.3712 119.398 14.3712C120.347 14.3631 121.117 15.1344 121.117 16.0925Z" fill="#A4FFAD"/>
<path d="M159.226 122.285C159.226 123.235 158.456 124.007 157.508 124.007C156.559 124.007 155.789 123.235 155.789 122.285C155.789 121.335 156.559 120.564 157.508 120.564C158.456 120.564 159.226 121.335 159.226 122.285Z" fill="#A4FFAD"/>
<path d="M96.0602 248.468C96.0602 249.418 95.2901 250.189 94.3416 250.189C93.3932 250.189 92.623 249.418 92.623 248.468C92.623 247.518 93.3932 246.747 94.3416 246.747C95.2901 246.747 96.0602 247.518 96.0602 248.468Z" fill="#A4FFAD"/>
<path d="M437.846 250.1C439.364 250.1 440.594 248.868 440.594 247.348C440.594 245.827 439.364 244.595 437.846 244.595C436.328 244.595 435.098 245.827 435.098 247.348C435.098 248.868 436.328 250.1 437.846 250.1Z" fill="#A4FFAD"/>
<path d="M496.213 250.1C497.731 250.1 498.961 248.868 498.961 247.348C498.961 245.827 497.731 244.595 496.213 244.595C494.695 244.595 493.465 245.827 493.465 247.348C493.465 248.868 494.695 250.1 496.213 250.1Z" fill="#A4FFAD"/>
<path d="M168.443 11.3427C169.961 11.3427 171.192 10.1104 171.192 8.59026C171.192 7.07012 169.961 5.8378 168.443 5.8378C166.926 5.8378 165.695 7.07012 165.695 8.59026C165.695 10.1104 166.926 11.3427 168.443 11.3427Z" fill="#A4FFAD"/>
<path d="M357.835 133.677C357.835 135.707 356.189 137.355 354.162 137.355C352.136 137.355 350.49 135.707 350.49 133.677C350.49 131.647 352.136 129.999 354.162 129.999C356.189 129.999 357.835 131.647 357.835 133.677Z" fill="#A4FFAD"/>
<path d="M86.9402 88.1923C86.9402 90.2221 85.2946 91.8703 83.2679 91.8703C81.2413 91.8703 79.5957 90.2221 79.5957 88.1923C79.5957 86.1625 81.2413 84.5142 83.2679 84.5142C85.2946 84.5142 86.9402 86.1543 86.9402 88.1923Z" fill="#A4FFAD"/>
<path d="M76.6049 33.2812H71.9843C71.6843 33.2812 71.4492 33.0376 71.4492 32.7453V28.1173C71.4492 27.8169 71.6924 27.5814 71.9843 27.5814H76.6049C76.9049 27.5814 77.14 27.825 77.14 28.1173V32.7453C77.1481 33.0376 76.9049 33.2812 76.6049 33.2812Z" fill="white"/>
<path d="M84.2241 33.2812H79.6034C79.3034 33.2812 79.0684 33.0376 79.0684 32.7453V28.1173C79.0684 27.8169 79.3116 27.5814 79.6034 27.5814H84.2241C84.524 27.5814 84.7591 27.825 84.7591 28.1173V32.7453C84.7591 33.0376 84.524 33.2812 84.2241 33.2812Z" fill="white"/>
<path d="M91.8452 33.2812H87.2245C86.9245 33.2812 86.6895 33.0376 86.6895 32.7453V28.1173C86.6895 27.8169 86.9326 27.5814 87.2245 27.5814H91.8452C92.1451 27.5814 92.3802 27.825 92.3802 28.1173V32.7453C92.3802 33.0376 92.1451 33.2812 91.8452 33.2812Z" fill="white"/>
<path d="M464.566 233.61H459.945C459.645 233.61 459.41 233.366 459.41 233.074V228.446C459.41 228.145 459.653 227.91 459.945 227.91H464.566C464.866 227.91 465.101 228.153 465.101 228.446V233.074C465.109 233.366 464.866 233.61 464.566 233.61Z" fill="#FCFBDE"/>
<path d="M472.185 233.61H467.564C467.264 233.61 467.029 233.366 467.029 233.074V228.446C467.029 228.145 467.273 227.91 467.564 227.91H472.185C472.485 227.91 472.72 228.153 472.72 228.446V233.074C472.72 233.366 472.485 233.61 472.185 233.61Z" fill="#FCFBDE"/>
<path d="M479.806 233.61H475.185C474.885 233.61 474.65 233.366 474.65 233.074V228.446C474.65 228.145 474.894 227.91 475.185 227.91H479.806C480.106 227.91 480.341 228.153 480.341 228.446V233.074C480.341 233.366 480.098 233.61 479.806 233.61Z" fill="#FCFBDE"/>
<path d="M112.371 230.484H107.75C107.45 230.484 107.215 230.24 107.215 229.948V225.32C107.215 225.019 107.458 224.784 107.75 224.784H112.371C112.671 224.784 112.906 225.028 112.906 225.32V229.948C112.906 230.24 112.662 230.484 112.371 230.484Z" fill="#FCFBDE"/>
<path d="M119.982 230.484H115.361C115.061 230.484 114.826 230.24 114.826 229.948V225.32C114.826 225.019 115.069 224.784 115.361 224.784H119.982C120.282 224.784 120.517 225.028 120.517 225.32V229.948C120.525 230.24 120.282 230.484 119.982 230.484Z" fill="#FCFBDE"/>
<path d="M127.603 230.484H122.982C122.682 230.484 122.447 230.24 122.447 229.948V225.32C122.447 225.019 122.69 224.784 122.982 224.784H127.603C127.903 224.784 128.138 225.028 128.138 225.32V229.948C128.146 230.24 127.903 230.484 127.603 230.484Z" fill="#FCFBDE"/>
<path d="M318.844 279.508H209.163C199.605 279.508 191.855 271.746 191.855 262.173V17.6514C191.855 8.07874 199.605 0.31665 209.163 0.31665H318.844C328.401 0.31665 336.151 8.07874 336.151 17.6514V262.173C336.151 271.754 328.401 279.508 318.844 279.508Z" fill="#91BA39"/>
<path d="M318.284 275.546H209.714C201.34 275.546 194.555 268.75 194.555 260.363V17.9518C194.555 9.56457 201.34 2.76868 209.714 2.76868H318.284C326.658 2.76868 333.443 9.56457 333.443 17.9518V260.363C333.443 268.75 326.658 275.546 318.284 275.546Z" fill="white"/>
<path d="M327.364 17.4728V259.608C327.364 265.283 322.767 269.887 317.101 269.887H210.898C205.231 269.887 200.635 265.283 200.635 259.608V17.4728C200.635 11.7974 205.231 7.19374 210.898 7.19374H228.61C229.591 7.19374 230.491 7.74585 230.929 8.63086L232.809 12.3901C233.669 14.1277 235.436 15.2156 237.357 15.2156H290.633C292.554 15.2156 294.321 14.1277 295.181 12.3901L297.061 8.63086C297.499 7.75397 298.399 7.19374 299.38 7.19374H317.093C322.767 7.18562 327.364 11.7893 327.364 17.4728Z" fill="#FCFBDE"/>
<path d="M286.362 10.8068H243.454C242.457 10.8068 241.646 9.9949 241.646 8.99622C241.646 7.99754 242.457 7.18561 243.454 7.18561H286.362C287.359 7.18561 288.17 7.99754 288.17 8.99622C288.17 9.9949 287.359 10.8068 286.362 10.8068Z" fill="#FCFBDE"/>
<path d="M310.51 261.483H215.024C211.27 261.483 208.23 258.439 208.23 254.679V220.911C208.23 217.152 211.27 214.107 215.024 214.107H310.51C314.263 214.107 317.303 217.152 317.303 220.911V254.679C317.303 258.439 314.263 261.483 310.51 261.483Z" stroke="#69D173" stroke-miterlimit="10" stroke-linecap="round" stroke-linejoin="round" stroke-dasharray="2.84 2.84"/>
<path d="M305.671 145.223H258.305C255.597 145.223 253.408 143.022 253.408 140.318V116.87C253.408 114.158 255.605 111.966 258.305 111.966H305.671C308.378 111.966 310.567 114.166 310.567 116.87V140.318C310.567 143.03 308.378 145.223 305.671 145.223Z" stroke="#69D173" stroke-miterlimit="10" stroke-linecap="round" stroke-linejoin="round" stroke-dasharray="2.84 2.84"/>
<path d="M315.869 206.223H218.04C214.813 206.223 212.203 203.609 212.203 200.377V159.05C212.203 155.818 214.813 153.204 218.04 153.204H315.869C319.095 153.204 321.706 155.818 321.706 159.05V200.377C321.706 203.609 319.095 206.223 315.869 206.223Z" fill="#5B9B4B"/>
<path d="M317.303 154.755V196.106C317.303 199.33 314.693 201.936 311.475 201.936H214.059C210.841 201.936 208.23 199.33 208.23 196.106V154.755C208.23 151.531 210.841 148.917 214.059 148.917H311.475C314.693 148.917 317.303 151.531 317.303 154.755Z" fill="#7FF4A0"/>
<path d="M245.91 197.625H217.213C215.041 197.625 213.273 195.855 213.273 193.679V164.936C213.273 162.76 215.041 160.99 217.213 160.99H245.91C248.083 160.99 249.85 162.76 249.85 164.936V193.679C249.85 195.855 248.083 197.625 245.91 197.625Z" fill="white"/>
<path d="M279.925 165.618H254.649C253.96 165.618 253.4 165.058 253.4 164.368C253.4 163.678 253.96 163.118 254.649 163.118H279.925C280.614 163.118 281.173 163.678 281.173 164.368C281.165 165.066 280.606 165.618 279.925 165.618Z" fill="#F9F6B2"/>
<path d="M268.406 170.595H254.649C253.96 170.595 253.4 170.035 253.4 169.345C253.4 168.655 253.96 168.095 254.649 168.095H268.406C269.095 168.095 269.654 168.655 269.654 169.345C269.646 170.043 269.086 170.595 268.406 170.595Z" fill="#F9F6B2"/>
<path d="M310.69 170.595H273.465C272.776 170.595 272.217 170.035 272.217 169.345C272.217 168.655 272.776 168.095 273.465 168.095H310.69C311.379 168.095 311.939 168.655 311.939 169.345C311.939 170.043 311.379 170.595 310.69 170.595Z" fill="#F9F6B2"/>
<path d="M275.929 175.573H254.641C253.952 175.573 253.393 175.012 253.393 174.322C253.393 173.632 253.952 173.072 254.641 173.072H275.929C276.618 173.072 277.177 173.632 277.177 174.322C277.177 175.012 276.618 175.573 275.929 175.573Z" fill="#F9F6B2"/>
<path d="M293.997 175.573H280.614C279.925 175.573 279.365 175.012 279.365 174.322C279.365 173.632 279.925 173.072 280.614 173.072H293.997C294.687 173.072 295.246 173.632 295.246 174.322C295.246 175.012 294.687 175.573 293.997 175.573Z" fill="#F9F6B2"/>
<path d="M310.689 175.573H298.368C297.678 175.573 297.119 175.012 297.119 174.322C297.119 173.632 297.678 173.072 298.368 173.072H310.689C311.378 173.072 311.938 173.632 311.938 174.322C311.938 175.012 311.378 175.573 310.689 175.573Z" fill="#F9F6B2"/>
<path d="M310.689 180.55H254.641C253.952 180.55 253.393 179.99 253.393 179.299C253.393 178.609 253.952 178.049 254.641 178.049H310.689C311.378 178.049 311.938 178.609 311.938 179.299C311.938 179.99 311.378 180.55 310.689 180.55Z" fill="#F9F6B2"/>
<path d="M285.494 185.527H254.649C253.96 185.527 253.4 184.967 253.4 184.277C253.4 183.586 253.96 183.026 254.649 183.026H285.494C286.183 183.026 286.742 183.586 286.742 184.277C286.734 184.967 286.183 185.527 285.494 185.527Z" fill="#F9F6B2"/>
<path d="M310.689 185.527H290.463C289.774 185.527 289.215 184.967 289.215 184.277C289.215 183.586 289.774 183.026 290.463 183.026H310.689C311.378 183.026 311.937 183.586 311.937 184.277C311.937 184.967 311.378 185.527 310.689 185.527Z" fill="#F9F6B2"/>
<path d="M272.767 190.504H254.641C253.952 190.504 253.393 189.944 253.393 189.254C253.393 188.564 253.952 188.003 254.641 188.003H272.767C273.456 188.003 274.015 188.564 274.015 189.254C274.015 189.944 273.456 190.504 272.767 190.504Z" fill="#F9F6B2"/>
<path d="M295.798 190.504H277.672C276.983 190.504 276.424 189.944 276.424 189.254C276.424 188.564 276.983 188.003 277.672 188.003H295.798C296.487 188.003 297.047 188.564 297.047 189.254C297.047 189.944 296.487 190.504 295.798 190.504Z" fill="#F9F6B2"/>
<path d="M310.688 190.504H300.174C299.485 190.504 298.926 189.944 298.926 189.254C298.926 188.564 299.485 188.003 300.174 188.003H310.688C311.377 188.003 311.937 188.564 311.937 189.254C311.937 189.944 311.377 190.504 310.688 190.504Z" fill="#F9F6B2"/>
<path d="M279.925 195.481H254.649C253.96 195.481 253.4 194.921 253.4 194.231C253.4 193.541 253.96 192.98 254.649 192.98H279.925C280.614 192.98 281.173 193.541 281.173 194.231C281.165 194.921 280.606 195.481 279.925 195.481Z" fill="#F9F6B2"/>
<path d="M310.688 165.618H285.412C284.723 165.618 284.164 165.058 284.164 164.368C284.164 163.678 284.723 163.118 285.412 163.118H310.688C311.378 163.118 311.937 163.678 311.937 164.368C311.937 165.066 311.378 165.618 310.688 165.618Z" fill="#F9F6B2"/>
<path d="M317.303 154.755V156.492H208.23V154.755C208.23 151.531 210.841 148.917 214.059 148.917H311.475C314.693 148.917 317.303 151.531 317.303 154.755Z" fill="#30CE5C"/>
<path d="M296.745 152.838C296.745 153.585 296.137 154.194 295.391 154.194C294.645 154.194 294.037 153.585 294.037 152.838C294.037 152.091 294.645 151.483 295.391 151.483C296.137 151.483 296.745 152.091 296.745 152.838Z" fill="#FCFBDE"/>
<path d="M303.651 152.838C303.651 153.585 303.043 154.194 302.297 154.194C301.551 154.194 300.943 153.585 300.943 152.838C300.943 152.091 301.551 151.483 302.297 151.483C303.043 151.483 303.651 152.091 303.651 152.838Z" fill="#FCFBDE"/>
<path d="M310.567 152.838C310.567 153.585 309.959 154.194 309.213 154.194C308.467 154.194 307.859 153.585 307.859 152.838C307.859 152.091 308.467 151.483 309.213 151.483C309.967 151.483 310.567 152.091 310.567 152.838Z" fill="#FCFBDE"/>
<path d="M241.995 145.223H220.407C217.205 145.223 214.611 142.624 214.611 139.417V117.795C214.611 114.588 217.205 111.99 220.407 111.99H241.995C245.197 111.99 247.791 114.588 247.791 117.795V139.417C247.791 142.624 245.197 145.223 241.995 145.223Z" stroke="#76D649" stroke-width="0.8956" stroke-miterlimit="10"/>
<path d="M226.025 123.804L221.25 128.586L226.065 133.417" stroke="#76D649" stroke-width="1.6716" stroke-miterlimit="10" stroke-linecap="round" stroke-linejoin="round"/>
<path d="M236.376 123.804L241.159 128.586L236.344 133.417" stroke="#76D649" stroke-width="1.6716" stroke-miterlimit="10" stroke-linecap="round" stroke-linejoin="round"/>
<path d="M233.442 123.804L228.967 133.417" stroke="#76D649" stroke-width="1.6716" stroke-miterlimit="10" stroke-linecap="round" stroke-linejoin="round"/>
<path d="M317.303 30.8779V98.4876C317.303 102.158 314.336 105.129 310.672 105.129H214.862C211.206 105.129 208.23 102.158 208.23 98.4876V30.8779C208.23 27.2079 211.206 24.2362 214.862 24.2362H310.672C314.336 24.2362 317.303 27.2079 317.303 30.8779Z" fill="#F9F6B2"/>
<path d="M295.214 61.4309C303.944 61.4309 311.022 54.3424 311.022 45.5982C311.022 36.8541 303.944 29.7655 295.214 29.7655C286.484 29.7655 279.406 36.8541 279.406 45.5982C279.406 54.3424 286.484 61.4309 295.214 61.4309Z" fill="#FFFEF0"/>
<path d="M272.345 105.129H214.862C211.206 105.129 208.23 102.158 208.23 98.4876V87.8431L233.385 44.2017C234.698 41.9202 237.989 41.9202 239.303 44.2017L258.296 77.15L272.401 101.622C273.082 102.791 272.977 104.122 272.345 105.129Z" fill="white"/>
<path d="M297.134 105.129H242.164L258.296 77.15L266.986 62.0724C268.17 60.0182 271.129 60.0182 272.312 62.0724L297.134 105.129Z" fill="#FFFEF0"/>
<path d="M406.166 230.76H363.785V294.545H406.166V230.76Z" fill="#3EBC3B"/>
<path d="M406.156 294.541H422.385V230.755H406.156V294.541Z" fill="#76D649"/>
<path d="M420.401 233.204H408.484V235.242H420.401V233.204Z" fill="#F9F6B2"/>
<path d="M420.401 237.58H408.484V239.618H420.401V237.58Z" fill="#F9F6B2"/>
<path d="M420.401 241.956H408.484V243.994H420.401V241.956Z" fill="#F9F6B2"/>
<path d="M420.401 246.325H408.484V248.363H420.401V246.325Z" fill="#F9F6B2"/>
<path d="M420.401 250.701H408.484V252.739H420.401V250.701Z" fill="#F9F6B2"/>
<path d="M420.401 255.069H408.484V257.107H420.401V255.069Z" fill="#F9F6B2"/>
<path d="M420.401 259.445H408.484V261.483H420.401V259.445Z" fill="#F9F6B2"/>
<path d="M420.401 263.822H408.484V265.86H420.401V263.822Z" fill="#F9F6B2"/>
<path d="M420.401 268.19H408.484V270.228H420.401V268.19Z" fill="#F9F6B2"/>
<path d="M420.401 272.566H408.484V274.604H420.401V272.566Z" fill="#F9F6B2"/>
<path d="M420.401 276.943H408.484V278.981H420.401V276.943Z" fill="#F9F6B2"/>
<path d="M420.401 281.311H408.484V283.349H420.401V281.311Z" fill="#F9F6B2"/>
<path d="M420.401 285.687H408.484V287.725H420.401V285.687Z" fill="#F9F6B2"/>
<path d="M420.401 290.055H408.484V292.093H420.401V290.055Z" fill="#F9F6B2"/>
<path d="M356.903 294.545H378.442C378.442 294.545 379.642 290.705 377.04 285.947C377.04 285.947 375.305 287.335 370.117 286.394C370.117 286.394 367.952 288.237 366.453 288.959C364.937 289.69 356.32 291.379 356.903 294.545Z" fill="#162827"/>
<path d="M358.403 233.715C359.797 242.029 366.209 270.155 368.974 286.767C374.016 287.197 376.44 286.621 377.72 286.32C377.469 280.523 376.975 266.664 377.031 260.59C377.129 250.319 377.607 236.776 373.092 229.339L357.908 230.532C357.997 231.336 358.087 231.986 358.16 232.457C358.232 232.911 358.322 233.326 358.403 233.715Z" fill="#2F5400"/>
<path d="M317.944 294.545H339.483C339.483 294.545 340.682 290.705 338.08 285.947C338.08 285.947 336.345 287.335 331.157 286.394C331.157 286.394 328.993 288.237 327.493 288.959C325.985 289.69 317.368 291.379 317.944 294.545Z" fill="#162827"/>
<path d="M330.525 286.288C334.643 287.311 337.619 287.205 339.029 287.051C340.172 280.369 341.98 265.681 343.609 258.788C346.138 248.078 348.611 233.358 346.892 228.105L331.96 224.346C331.92 224.825 330.704 269.887 330.525 286.288Z" fill="#203505"/>
<path d="M389.962 209.016C389.662 206.061 389.314 203.901 389.314 203.901L372.631 207.993L358.461 211.225C353.208 212.394 346.86 213.807 341.267 215.073C334.984 216.502 330.817 221.276 332.196 227.577L333.768 235.217C342.548 235.096 383.842 231.133 387.368 229.347C391.357 227.325 392.556 220.197 389.962 209.016Z" fill="#203505"/>
<path d="M414.864 209.016C414.564 206.061 413.13 202.886 413.13 202.886L397.541 207.985L383.371 211.217C378.118 212.386 371.77 213.799 366.177 215.065C359.894 216.494 355.728 221.268 357.106 227.569L358.678 235.209C367.458 235.087 404.164 233.805 412.278 229.339C416.186 227.187 417.458 220.197 414.864 209.016Z" fill="#2F5400"/>
<path d="M368.163 185.072C368.163 185.072 375.572 181.719 377.615 185.08C378.734 186.924 377.955 190.342 375.434 191.779C372.905 193.216 358.63 199.265 345.148 202.634C345.148 202.634 344.573 200.759 343.641 198.786C343.641 198.786 349.688 196.277 355.695 192.047C361.71 187.809 368.163 185.072 368.163 185.072Z" fill="#E5918F"/>
<path d="M370.019 161.892L363.672 187.297C363.672 187.297 364.329 193.719 370.806 190.569C377.283 187.419 381.571 167.177 381.571 167.177L370.019 161.892Z" fill="#E5918F"/>
<path d="M380.762 176.1C379.975 175.914 379.229 175.703 378.5 175.483C377.762 175.264 377.057 175.037 376.384 174.801C370.353 172.731 367.086 170.238 367.086 170.238C368.983 161.981 371.269 156.427 373.304 152.774C373.36 152.684 373.409 152.603 373.458 152.506C373.514 152.416 373.563 152.327 373.62 152.238C374.714 150.419 376.287 148.892 378.038 147.634C378.216 147.504 378.386 147.39 378.573 147.26L379.319 160.528L379.448 161.892L380.762 176.1Z" fill="white"/>
<path d="M380.76 176.1C379.974 175.914 379.228 175.703 378.499 175.483C377.761 175.264 377.056 175.037 376.383 174.801C377.647 165.87 378.799 160.251 378.799 160.251L379.447 161.892L380.76 176.1Z" fill="#C7F2E3"/>
<path d="M418.253 153.163C418.099 157.093 417.41 163.394 416.818 169.727C416.632 171.732 416.445 173.754 416.291 175.694C416.186 176.904 414.362 183.375 414.289 184.536C413.965 190.074 411.257 194.215 413.819 202.651C414.435 204.672 414.589 205.712 414.589 206.54C414.589 207.116 413.843 207.725 413.543 207.888C412.465 208.513 410.357 208.943 407.788 209.26H407.78C402.729 209.877 395.92 209.991 391.81 209.991C386.289 209.991 378.004 209.114 376.959 207.717C376.002 206.442 376.886 204.583 377.34 202.025C379.374 190.472 378.653 184.447 378.523 176.1C378.523 175.889 378.515 175.686 378.515 175.467C378.304 162.598 377.461 151.588 378.053 147.618C378.231 147.488 378.402 147.374 378.588 147.244C379.464 146.643 380.323 146.116 381.15 145.645C381.223 145.612 381.312 145.555 381.401 145.499C381.652 145.352 381.92 145.214 382.163 145.085C382.252 145.028 382.35 144.987 382.455 144.938C384.328 144.021 387.051 143.047 388.616 142.503C388.819 142.438 388.997 142.373 389.151 142.332C390.626 142.243 392.223 142.226 393.95 142.267C395.45 142.316 397.744 142.511 400.241 142.835C400.249 142.835 400.249 142.835 400.249 142.835C403.07 143.201 406.15 143.729 408.598 144.402C408.598 144.402 408.623 144.411 408.647 144.419C409.109 144.565 412.1 145.685 415.213 149.022C416.227 150.151 417.297 151.507 418.253 153.163Z" fill="white"/>
<path d="M413.819 202.659C414.435 204.681 414.589 205.72 414.589 206.548C414.589 207.124 413.843 207.733 413.543 207.896C412.465 208.521 410.357 208.951 407.788 209.268C408.842 209.138 410.665 207.465 410.665 205.947C410.665 204.883 409.295 197.722 409.668 193.102C410.049 188.491 410.795 181.143 409.368 175.256C407.934 169.378 406.588 161.64 406.588 161.64L414.638 166.511C414.638 166.511 415.675 167.965 416.818 169.735C416.632 171.74 416.445 173.762 416.291 175.703C416.186 176.912 411.249 194.223 413.819 202.659Z" fill="#C7F2E3"/>
<path d="M378.41 119.159C378.41 119.159 379.107 127.587 381.896 128.156C384.685 128.724 384.004 125.143 384.004 125.143L383.615 121.141L378.41 119.159Z" fill="#2F5400"/>
<path d="M391.276 149.721C385.812 149.071 387.855 143.753 388.601 142.527C388.803 142.462 389.736 142.178 389.809 142.129C389.817 142.121 389.825 142.121 389.825 142.121C390.003 141.975 390.141 141.756 390.246 141.488C390.781 140.083 390.538 137.29 390.514 137.111C390.514 137.103 390.514 137.103 390.514 137.103V136.6C390.603 136.267 390.692 135.95 390.765 135.65L393.635 133.385L399.715 128.594C399.715 128.594 398.102 136.6 399.399 141.65C399.496 142.032 399.698 142.567 400.201 142.86C400.201 142.868 400.209 142.86 400.209 142.86C400.371 142.965 400.574 143.038 400.817 143.079C402.325 143.777 400.25 150.784 391.276 149.721Z" fill="#E5918F"/>
<path d="M396.099 133.677C396.099 133.677 396.05 139.019 390.254 141.48C390.789 140.083 390.546 137.29 390.53 137.111L392.953 135.203L396.099 133.677Z" fill="#CC6362"/>
<path d="M379.74 120.361C379.74 120.361 381.005 137.858 385.723 139.344C385.723 139.344 391.73 139.913 396.042 134.099C397.283 132.426 398.855 132.045 399.366 130.023C400.201 126.735 401.376 120.678 399.877 117.024C397.745 111.828 379.943 107.695 379.74 120.361Z" fill="#E5918F"/>
<path d="M399.957 114.142C399.876 110.967 396.666 109.774 396.666 109.774C393.472 108.271 386.825 108.921 379.975 110.456C378.37 110.813 376.351 109.83 375.233 110.61C373.879 111.552 375.225 115.855 375.225 115.855C377.867 123.869 387.587 121.262 390.513 120.272C391.211 122.334 391.121 125.2 392.848 126.686C393.837 127.531 395.548 127.555 397.299 127.263C397.517 127.669 398.32 128.034 398.482 128.594C399.033 130.47 398.952 133.401 398.936 135.658L399.763 135.252C399.868 134.635 408.396 114.402 399.957 114.142Z" fill="#2F5400"/>
<path d="M384.579 126.248C384.822 127.701 384.108 129.033 382.982 129.227C381.855 129.422 380.736 128.399 380.493 126.946C380.25 125.493 380.963 124.161 382.09 123.966C383.217 123.779 384.335 124.794 384.579 126.248Z" stroke="white" stroke-width="0.501" stroke-miterlimit="10"/>
<path d="M390.278 125.184C390.521 126.637 389.808 127.969 388.681 128.164C387.554 128.359 386.435 127.336 386.192 125.882C385.949 124.429 386.662 123.097 387.789 122.902C388.916 122.708 390.035 123.731 390.278 125.184Z" stroke="white" stroke-width="0.501" stroke-miterlimit="10"/>
<path d="M384.578 126.248C384.578 126.248 384.829 125.842 386.143 125.955" stroke="white" stroke-width="0.501" stroke-miterlimit="10"/>
<path d="M390.326 125.533L395.198 124.754" stroke="white" stroke-width="0.501" stroke-miterlimit="10"/>
<path d="M395.556 130.949C398.912 132.24 399.957 123.966 396.772 123.601C394.356 123.325 394.259 126.702 394.259 126.702C394.259 126.702 393.643 130.21 395.556 130.949Z" fill="#E5918F"/>
<g opacity="0.5">
<path d="M396.667 124.843C396.667 124.843 396.448 125.07 396.253 125.436C396.051 125.801 395.88 126.304 395.848 126.848C395.816 127.116 395.824 127.392 395.84 127.652C395.848 127.912 395.88 128.164 395.897 128.375C395.921 128.594 395.937 128.781 395.953 128.911C395.97 129.041 395.97 129.122 395.97 129.122C395.97 129.122 395.921 129.065 395.848 128.951C395.783 128.838 395.662 128.683 395.572 128.472C395.475 128.261 395.378 128.01 395.329 127.725C395.264 127.441 395.248 127.125 395.272 126.8C395.305 126.483 395.386 126.166 395.516 125.89C395.645 125.614 395.832 125.395 396.002 125.233C396.351 124.908 396.667 124.843 396.667 124.843Z" fill="#CC6362"/>
<path d="M397.186 126.41C397.186 126.41 397.048 126.426 396.862 126.499C396.675 126.564 396.44 126.702 396.27 126.873C396.092 127.051 395.978 127.263 395.921 127.433C395.857 127.604 395.84 127.717 395.84 127.717L395.289 127.522C395.289 127.522 395.354 127.384 395.492 127.198C395.621 127.011 395.84 126.784 396.1 126.637C396.359 126.491 396.643 126.418 396.854 126.41C397.056 126.394 397.186 126.41 397.186 126.41Z" fill="#CC6362"/>
</g>
<path d="M427.811 188.417C427.811 188.417 427.811 188.417 427.811 188.426C426.336 190.139 420.742 191.389 418.051 189.018C417.208 188.263 416.251 186.274 415.311 183.806C412.928 177.497 410.666 168.054 410.666 168.054L423.191 161.648C423.191 161.648 424.804 168.882 426.19 175.759C426.19 175.759 426.206 175.832 426.23 175.954C426.684 178.155 427.106 180.322 427.43 182.182C427.446 182.23 427.446 182.279 427.455 182.328C427.779 184.536 427.99 186.85 427.811 188.417Z" fill="#E5918F"/>
<path d="M405.939 159.269C407.147 164.303 410.949 173.851 410.949 173.851C413.608 174.29 417.183 173.803 420.142 172.739C423.555 171.513 425.995 168.931 425.995 168.931C425.995 168.931 423.474 161.835 421.212 156.736C419.185 152.156 417.961 150.451 417.086 149.542C415.765 148.154 413.624 146.562 412.117 145.84L405.939 159.269Z" fill="white"/>
<path d="M421.771 162.557L414.427 159.383L408.639 144.443C408.639 144.443 409.701 144.768 411.095 145.328C411.095 145.328 411.095 145.328 411.103 145.328C411.127 145.344 411.192 145.361 411.289 145.401C411.322 145.417 411.362 145.426 411.395 145.45C412.643 146.035 417.483 148.893 420.839 159.277C420.863 159.366 420.896 159.456 420.92 159.537C421.277 160.731 421.536 161.697 421.682 162.192C421.698 162.241 421.706 162.289 421.723 162.338C421.739 162.419 421.747 162.492 421.771 162.557Z" fill="white"/>
<path d="M427.812 188.417C427.812 188.417 427.812 188.417 427.812 188.426C427.707 189.343 427.456 190.001 427.002 190.236C426.929 190.285 425.899 190.894 425.826 190.943C424.294 191.876 421.522 193.476 418.068 194.962C409.694 198.583 397.527 202.789 390.968 204.713C390.968 204.713 390.32 202.854 389.307 200.921C389.307 200.921 395.241 198.161 401.069 193.687C406.906 189.221 415.312 183.798 415.312 183.798L417.436 181.297C417.436 181.297 424.975 174.347 426.191 175.743C426.191 175.743 426.207 175.816 426.232 175.938C426.41 176.661 427.01 179.332 427.431 182.166C427.448 182.214 427.448 182.263 427.456 182.312C427.78 184.536 427.991 186.85 427.812 188.417Z" fill="#E5918F"/>
<path d="M390.173 200.499C390.173 200.499 388.698 201.392 387.198 201.076C386.363 200.897 386.031 200.564 385.415 200.45C384.799 200.345 383.161 200.142 382.351 199.744C381.54 199.346 381.224 199.297 381.256 200.117C381.289 200.929 382.886 201.636 383.315 201.863C383.753 202.09 384.296 202.813 384.353 202.902C384.41 202.992 381.686 204.421 380.956 204.128C380.956 204.128 380.737 204.786 380.859 205.151C380.981 205.517 381.54 205.647 381.589 205.833C381.629 206.02 381.459 206.394 381.581 206.686C381.702 206.978 382.205 206.978 382.407 207.457C382.61 207.936 382.391 207.936 382.537 208.44C382.683 208.935 383.315 209.024 383.437 209.276C383.558 209.528 383.494 209.828 383.761 210.007C384.029 210.185 386.477 209.398 387.369 209.008C388.26 208.627 390.652 205.176 393.294 204.007L390.173 200.499Z" fill="#E5918F"/>
<path d="M402.689 215.877H383.639V214.01H402.689C403.2 214.01 403.621 214.424 403.621 214.943C403.621 215.463 403.2 215.877 402.689 215.877Z" fill="#378448"/>
<path d="M392.385 215.877H344.686C344.119 215.877 343.616 215.495 343.462 214.943L333.702 179.746C333.483 178.967 334.075 178.195 334.878 178.195H380.995C382.074 178.195 383.014 178.91 383.298 179.949L393.025 215.016C393.147 215.455 392.823 215.877 392.385 215.877Z" fill="#378448"/>
<path d="M390.658 215.877H342.968C342.4 215.877 341.898 215.495 341.744 214.943L331.983 179.746C331.765 178.967 332.356 178.195 333.159 178.195H379.277C380.355 178.195 381.295 178.91 381.579 179.949L391.307 215.016C391.42 215.455 391.104 215.877 390.658 215.877Z" fill="#46DB55"/>
<path d="M201.633 193.135L207.161 187.459C207.161 187.459 207.356 184.926 207.656 184.398C207.956 183.862 208.734 181.889 209.123 181.67C209.512 181.451 210.282 181.67 210.282 181.67C210.282 181.67 211.053 181.41 211.393 181.41C211.733 181.41 212.382 181.727 212.382 181.727C212.382 181.727 213.209 181.67 213.549 181.67C213.89 181.67 214.003 181.768 214.003 181.768C214.003 181.768 215.333 180.233 215.981 179.713C216.63 179.194 217.611 178.244 217.903 178.252C218.178 178.252 218.3 178.739 218.097 179.259C217.894 179.778 217.019 180.607 217.019 180.607L214.506 184.431C214.506 184.431 214.936 184.26 215.163 184.114C215.39 183.968 216.93 182.531 217.019 182.474C217.108 182.417 217.797 181.954 218.202 182.417C218.608 182.88 215.568 186.517 215.081 187.013C214.595 187.5 211.806 188.921 211.806 188.921C211.806 188.921 208.856 194.231 208.572 194.572C208.28 194.921 201.633 193.135 201.633 193.135Z" fill="#E49191"/>
<path d="M206.828 166.95C206.828 166.95 203.739 184.853 200.837 185.267C200.837 185.267 189.245 185.738 186.659 171.643C184.422 159.423 193.404 156.817 197.611 157.751C201.81 158.693 207.736 159.301 206.828 166.95Z" fill="#E49191"/>
<path d="M196.582 182.409C196.582 182.409 194.961 184.601 194.385 189.911C194.385 189.911 189.554 190.602 185.104 188.304C185.104 188.304 187.503 180.81 187.795 172.674" fill="#E49191"/>
<path d="M193.315 154.763C186.975 156.167 187.486 160.122 187.486 160.122C184.519 160.86 183.879 162.086 183.903 167.567C183.927 173.056 185.905 179.64 187 180.176C188.094 180.712 194.287 180.737 194.806 180.55C195.325 180.363 197.489 175.329 196.987 174.444C196.484 173.559 197.011 170.076 198.454 169.946C199.897 169.816 199.613 172.057 199.613 172.057L200.797 171.797L201.713 169.548C210.087 170.043 212.251 160.487 212.251 160.487C210.241 159.172 199.654 153.358 193.315 154.763Z" fill="#2F5400"/>
<path d="M122.967 275.968L129.371 276.894L127.247 284.388L120.308 282.634C120.308 282.634 117.487 278.802 121.751 275.968C121.961 275.838 122.634 275.895 122.967 275.968Z" fill="#E5918F"/>
<path d="M170.796 256.725L161.352 228.088C161.352 228.088 158.49 227.065 157.023 228.088C157.023 228.088 147.182 233.39 148.236 248.492C149.03 259.884 151.43 272.233 152.402 277.186L127.207 276.252C127.207 276.252 124.103 279.955 126.113 284.77C126.113 284.77 157.777 293.295 162.235 294.082C165.859 294.724 169.831 295.219 171.744 293.571C175.109 290.68 170.796 256.725 170.796 256.725Z" fill="#203505"/>
<path d="M152.806 275.968L159.211 276.894L157.087 284.388L150.148 282.634C150.148 282.634 147.327 278.802 151.591 275.968C151.793 275.838 152.466 275.895 152.806 275.968Z" fill="#E5918F"/>
<path d="M150.481 279.898C150.335 281.376 151.624 282.699 151.389 283.073C151.154 283.438 146.849 290.681 146.849 290.681C146.849 290.681 150.1 292.101 149.573 294.147H141.337C141.337 294.147 139.189 292.207 139.237 289.422C139.237 289.422 139.796 286.215 141.264 283.381C142.731 280.548 146.071 274.141 146.071 274.141C146.071 274.141 147.084 273.727 148.819 274.19C150.846 274.734 152.799 275.976 152.799 275.976C152.799 275.976 150.829 276.252 150.481 279.898Z" fill="#46DB55"/>
<path d="M216.444 287.563C214.409 279.963 195.286 247.526 188.809 238.765C175.514 232.984 161.352 228.08 161.352 228.08C155.491 229.485 152.606 241.307 155.929 249.191C158.207 254.598 172.669 268.206 181.529 276.22L156.951 276.187C156.951 276.187 154.057 280.523 156.683 284.64C156.683 284.64 197.556 293.944 201.139 294.472C204.722 295 212.772 294.472 212.772 294.472C212.772 294.472 218.155 293.961 216.444 287.563Z" fill="#2F5400"/>
<path d="M120.649 279.898C120.503 281.376 121.792 282.699 121.557 283.073C121.322 283.438 117.017 290.681 117.017 290.681C117.017 290.681 120.268 292.101 119.741 294.147H111.505C111.505 294.147 109.356 292.207 109.405 289.422C109.405 289.422 109.964 286.215 111.432 283.381C112.899 280.548 116.239 274.141 116.239 274.141C116.239 274.141 117.252 273.727 118.987 274.19C121.014 274.734 122.967 275.976 122.967 275.976C122.967 275.976 120.997 276.252 120.649 279.898Z" fill="#46DB55"/>
<path d="M247.215 187.622L234.034 210.843L224.59 201.416L216.775 213.068L219.045 214.156L218.226 214.838C218.226 214.838 236.442 223.72 238.63 221.764C240.811 219.807 250.985 190.26 250.985 190.26L247.215 187.622Z" fill="#E49191"/>
<path d="M226.276 202.902C226.276 202.902 223.787 213.417 218.81 218.402L206.074 213.547C206.074 213.547 200.165 223.501 194.385 231.133C192.164 234.081 191.426 238.23 188.816 238.774C188.654 238.717 188.5 238.668 188.337 238.627C181.26 236.5 170.819 238.757 162.202 235.55C152.685 232.002 154.533 230.005 154.533 230.005C154.533 230.005 160.305 219.588 163.58 208.553C165.039 203.674 166.053 199.151 166.725 195.619C167.933 189.367 172.935 184.48 179.242 183.627C179.315 183.619 179.38 183.603 179.453 183.594C186.667 182.677 205.556 184.91 209.228 186.485C212.9 188.06 226.276 202.902 226.276 202.902Z" fill="#46DB55"/>
<path d="M206.075 213.547C206.075 213.547 200.165 223.501 194.386 231.133C192.164 234.081 191.427 238.23 188.816 238.774C189.959 238.368 191.856 232.343 192.529 230.987C193.21 229.639 194.288 228.283 196.623 223.55C198.95 218.808 202.111 211.858 202.111 211.858L206.075 213.547Z" fill="#59EF9E"/>
<path d="M181.529 276.22C181.529 276.22 181.732 276.171 182.081 276.131C182.437 276.09 182.94 276.017 183.548 275.993C184.764 275.928 186.393 275.976 188.006 276.196C188.809 276.309 189.611 276.455 190.357 276.642C191.103 276.821 191.784 277.024 192.36 277.235C192.935 277.43 193.397 277.649 193.73 277.795C194.054 277.941 194.232 278.039 194.232 278.039C194.232 278.039 194.03 278.014 193.681 277.958C193.332 277.884 192.83 277.819 192.238 277.714C191.046 277.511 189.474 277.259 187.893 277.048C187.107 276.926 186.312 276.837 185.566 276.74C184.821 276.642 184.123 276.561 183.532 276.48C182.332 276.334 181.529 276.22 181.529 276.22Z" fill="#203505"/>
<path d="M257.064 179.08C256.853 179.056 255.499 180.144 254.851 180.68L255.605 179.234C255.605 179.234 256.602 178.276 256.959 177.749C257.315 177.221 257.129 176.693 256.845 176.669C256.65 176.652 255.459 177.594 254.77 178.155L254.924 177.862C254.924 177.862 255.921 176.904 256.278 176.376C256.634 175.849 256.448 175.321 256.164 175.288C255.88 175.264 253.594 177.18 253.594 177.18L252.484 178.674L253.327 177.042C253.327 177.042 253.773 176.498 254.065 175.914C254.356 175.321 254.146 175.142 253.983 174.947C253.821 174.753 252.281 175.897 251.884 176.36C251.495 176.823 250.246 178.682 250.149 178.942L248.86 181.605C248.779 180.834 248.649 179.51 248.56 178.666C248.431 177.456 247.328 177.164 247.296 177.757C247.255 178.349 246.647 181.248 246.785 182.823C246.923 184.398 247.19 185.429 247.287 186.314C247.385 187.199 246.469 188.97 246.469 188.97C246.469 188.97 250.141 191.251 250.741 190.569C251.349 189.887 252.638 188.369 253.262 187.346C254.121 185.941 254.697 184.098 254.697 184.098L255.84 181.646C255.84 181.646 256.837 180.688 257.194 180.16C257.534 179.632 257.348 179.104 257.064 179.08Z" fill="#E49191"/>
<path d="M467.63 105.129H424.617C421.86 105.129 419.623 107.37 419.623 110.131V120.312C419.623 122.862 421.528 124.965 423.984 125.273C424.341 125.322 424.617 125.622 424.617 125.988V131.558C424.617 131.882 425.03 132.012 425.216 131.753L429.602 125.614C429.74 125.419 429.959 125.314 430.194 125.314H467.638C470.394 125.314 472.631 123.073 472.631 120.312V110.131C472.623 107.37 470.386 105.129 467.63 105.129Z" stroke="white" stroke-width="0.8956" stroke-miterlimit="10"/>
<path d="M431.215 115.205C431.215 116.115 430.477 116.854 429.569 116.854C428.661 116.854 427.924 116.115 427.924 115.205C427.924 114.296 428.661 113.557 429.569 113.557C430.477 113.557 431.215 114.296 431.215 115.205Z" stroke="white" stroke-width="0.8956" stroke-miterlimit="10"/>
<path d="M439.492 115.205C439.492 116.115 438.755 116.854 437.847 116.854C436.939 116.854 436.201 116.115 436.201 115.205C436.201 114.296 436.939 113.557 437.847 113.557C438.755 113.557 439.492 114.296 439.492 115.205Z" stroke="white" stroke-width="0.8956" stroke-miterlimit="10"/>
<path d="M447.76 115.205C447.76 116.115 447.022 116.854 446.114 116.854C445.206 116.854 444.469 116.115 444.469 115.205C444.469 114.296 445.206 113.557 446.114 113.557C447.03 113.557 447.76 114.296 447.76 115.205Z" stroke="white" stroke-width="0.8956" stroke-miterlimit="10"/>
<path d="M456.037 115.205C456.037 116.115 455.3 116.854 454.392 116.854C453.484 116.854 452.746 116.115 452.746 115.205C452.746 114.296 453.484 113.557 454.392 113.557C455.308 113.557 456.037 114.296 456.037 115.205Z" stroke="white" stroke-width="0.8956" stroke-miterlimit="10"/>
<path d="M464.315 115.205C464.315 116.115 463.577 116.854 462.669 116.854C461.761 116.854 461.023 116.115 461.023 115.205C461.023 114.296 461.761 113.557 462.669 113.557C463.585 113.557 464.315 114.296 464.315 115.205Z" stroke="white" stroke-width="0.8956" stroke-miterlimit="10"/>
<path d="M127.724 149.753H170.737C173.494 149.753 175.731 151.994 175.731 154.755V164.936C175.731 167.486 173.826 169.589 171.37 169.897C171.013 169.946 170.737 170.246 170.737 170.612V176.182C170.737 176.506 170.324 176.636 170.138 176.376L165.752 170.238C165.614 170.043 165.395 169.938 165.16 169.938H127.716C124.96 169.938 122.723 167.697 122.723 164.936V154.755C122.731 151.986 124.968 149.753 127.724 149.753Z" stroke="white" stroke-width="0.8956" stroke-miterlimit="10"/>
<path d="M164.139 159.821C164.139 160.73 164.876 161.469 165.784 161.469C166.692 161.469 167.43 160.73 167.43 159.821C167.43 158.912 166.692 158.173 165.784 158.173C164.876 158.181 164.139 158.912 164.139 159.821Z" stroke="white" stroke-width="0.8956" stroke-miterlimit="10"/>
<path d="M155.861 159.821C155.861 160.73 156.599 161.469 157.507 161.469C158.415 161.469 159.153 160.73 159.153 159.821C159.153 158.912 158.415 158.173 157.507 158.173C156.599 158.181 155.861 158.912 155.861 159.821Z" stroke="white" stroke-width="0.8956" stroke-miterlimit="10"/>
<path d="M147.584 159.821C147.584 160.73 148.322 161.469 149.23 161.469C150.138 161.469 150.875 160.73 150.875 159.821C150.875 158.912 150.138 158.173 149.23 158.173C148.322 158.181 147.584 158.912 147.584 159.821Z" stroke="white" stroke-width="0.8956" stroke-miterlimit="10"/>
<path d="M139.309 159.821C139.309 160.73 140.046 161.469 140.954 161.469C141.862 161.469 142.6 160.73 142.6 159.821C142.6 158.912 141.862 158.173 140.954 158.173C140.046 158.181 139.309 158.912 139.309 159.821Z" stroke="white" stroke-width="0.8956" stroke-miterlimit="10"/>
<path d="M131.031 159.821C131.031 160.73 131.769 161.469 132.677 161.469C133.585 161.469 134.322 160.73 134.322 159.821C134.322 158.912 133.585 158.173 132.677 158.173C131.769 158.181 131.031 158.912 131.031 159.821Z" stroke="white" stroke-width="0.8956" stroke-miterlimit="10"/>
<path d="M387.506 81.6481H309.1C304.78 81.6481 301.27 78.1405 301.27 73.8048C301.27 69.4772 304.772 65.9615 309.1 65.9615H387.506C391.827 65.9615 395.337 69.4691 395.337 73.8048C395.337 78.1405 391.835 81.6481 387.506 81.6481Z" fill="white" stroke="#76D649" stroke-width="0.8956" stroke-miterlimit="10"/>
<path d="M386.363 73.2689C386.363 75.5748 384.498 77.4423 382.196 77.4423C379.894 77.4423 378.029 75.5748 378.029 73.2689C378.029 70.963 379.894 69.0956 382.196 69.0956C384.498 69.0956 386.363 70.963 386.363 73.2689Z" stroke="#76D649" stroke-width="1.6716" stroke-miterlimit="10"/>
<path d="M385.139 76.2162L387.441 78.514" stroke="#76D649" stroke-width="1.6716" stroke-miterlimit="10" stroke-linecap="round"/>
<path d="M268.745 294.919H249.022C245.568 294.919 242.771 292.118 242.771 288.659V268.913C242.771 265.454 245.568 262.653 249.022 262.653H268.745C272.198 262.653 274.995 265.454 274.995 268.913V288.667C274.995 292.118 272.19 294.919 268.745 294.919Z" fill="#1B9119"/>
<path d="M262.868 294.919H243.145C239.691 294.919 236.895 292.118 236.895 288.659V268.913C236.895 265.454 239.691 262.653 243.145 262.653H262.868C266.321 262.653 269.118 265.454 269.118 268.913V288.667C269.118 292.118 266.321 294.919 262.868 294.919Z" fill="#76D649"/>
<path d="M249.201 272.696L258.45 278.047C259.018 278.38 259.018 279.2 258.45 279.533L249.201 284.883C248.633 285.216 247.92 284.802 247.92 284.144V273.451C247.92 272.777 248.633 272.363 249.201 272.696Z" fill="white"/>
<path d="M472.77 294.919H446.992C442.484 294.919 438.82 291.257 438.82 286.735V260.907C438.82 256.393 442.476 252.723 446.992 252.723H472.778C477.286 252.723 480.95 256.384 480.95 260.907V286.735C480.942 291.257 477.286 294.919 472.77 294.919Z" fill="#1B9119"/>
<path d="M465.093 294.919H439.306C434.799 294.919 431.135 291.257 431.135 286.735V260.907C431.135 256.393 434.791 252.723 439.306 252.723H465.093C469.6 252.723 473.264 256.384 473.264 260.907V286.735C473.264 291.257 469.608 294.919 465.093 294.919Z" fill="#76D649"/>
<path d="M457.261 263.083C457.261 265.884 455 268.149 452.203 268.149C449.406 268.149 447.145 265.876 447.145 263.083C447.145 260.282 449.406 258.016 452.203 258.016C455 258.016 457.261 260.29 457.261 263.083Z" fill="white"/>
<path d="M462.75 280.247V287.733C462.75 288.407 462.207 288.959 461.526 288.959H442.873C442.2 288.959 441.648 288.407 441.648 287.733V280.247C441.648 274.409 446.375 269.684 452.195 269.684C458.032 269.684 462.75 274.409 462.75 280.247Z" fill="white"/>
<path d="M358.005 90.6849H341.444C340.755 90.6849 340.195 90.1247 340.195 89.4345C340.195 88.7444 340.755 88.1841 341.444 88.1841H358.005C358.694 88.1841 359.254 88.7444 359.254 89.4345C359.254 90.1247 358.694 90.6849 358.005 90.6849Z" fill="#FFFEF0"/>
<path d="M374.576 90.6849H362.594C361.905 90.6849 361.346 90.1247 361.346 89.4345C361.346 88.7444 361.905 88.1841 362.594 88.1841H374.576C375.265 88.1841 375.824 88.7444 375.824 89.4345C375.816 90.1247 375.265 90.6849 374.576 90.6849Z" fill="#FFFEF0"/>
<path d="M348.48 96.1655H341.444C340.755 96.1655 340.195 95.6052 340.195 94.9151C340.195 94.2249 340.755 93.6647 341.444 93.6647H348.48C349.169 93.6647 349.729 94.2249 349.729 94.9151C349.729 95.6052 349.169 96.1655 348.48 96.1655Z" fill="#FFFEF0"/>
<path d="M374.574 96.1655H352.662C351.973 96.1655 351.414 95.6052 351.414 94.9151C351.414 94.2249 351.973 93.6647 352.662 93.6647H374.574C375.263 93.6647 375.823 94.2249 375.823 94.9151C375.815 95.6052 375.263 96.1655 374.574 96.1655Z" fill="#FFFEF0"/>
<path d="M363.274 101.646H341.444C340.755 101.646 340.195 101.086 340.195 100.396C340.195 99.7055 340.755 99.1453 341.444 99.1453H363.274C363.964 99.1453 364.523 99.7055 364.523 100.396C364.523 101.086 363.964 101.646 363.274 101.646Z" fill="#FFFEF0"/>
<path d="M374.576 101.646H367.539C366.85 101.646 366.291 101.086 366.291 100.396C366.291 99.7055 366.85 99.1453 367.539 99.1453H374.576C375.265 99.1453 375.824 99.7055 375.824 100.396C375.816 101.086 375.265 101.646 374.576 101.646Z" fill="#FFFEF0"/>
<path d="M148.307 217.988H90.4912C88.7807 217.988 87.3945 216.6 87.3945 214.887V185.657C87.3945 183.944 88.7807 182.555 90.4912 182.555H148.307C150.017 182.555 151.403 183.944 151.403 185.657V214.887C151.403 216.6 150.017 217.988 148.307 217.988Z" fill="#1B9119"/>
<path d="M90.1094 187.338H148.679" stroke="white" stroke-width="0.8956" stroke-miterlimit="10" stroke-linecap="round"/>
<path d="M147.139 185.616C147.533 185.616 147.853 185.296 147.853 184.902C147.853 184.507 147.533 184.187 147.139 184.187C146.745 184.187 146.426 184.507 146.426 184.902C146.426 185.296 146.745 185.616 147.139 185.616Z" fill="white"/>
<path d="M143.434 185.616C143.828 185.616 144.147 185.296 144.147 184.902C144.147 184.507 143.828 184.187 143.434 184.187C143.04 184.187 142.721 184.507 142.721 184.902C142.721 185.296 143.04 185.616 143.434 185.616Z" fill="white"/>
<path d="M139.739 185.616C140.133 185.616 140.452 185.296 140.452 184.902C140.452 184.507 140.133 184.187 139.739 184.187C139.345 184.187 139.025 184.507 139.025 184.902C139.025 185.296 139.345 185.616 139.739 185.616Z" fill="white"/>
<path d="M101.029 192.104H91.0903C90.5471 192.104 90.1094 191.665 90.1094 191.121C90.1094 190.577 90.5471 190.139 91.0903 190.139H101.029C101.572 190.139 102.01 190.577 102.01 191.121C102.01 191.665 101.572 192.104 101.029 192.104Z" fill="#95D165"/>
<path d="M101.029 196.642H91.0903C90.5471 196.642 90.1094 196.204 90.1094 195.66C90.1094 195.116 90.5471 194.677 91.0903 194.677H101.029C101.572 194.677 102.01 195.116 102.01 195.66C102.01 196.204 101.572 196.642 101.029 196.642Z" fill="#95D165"/>
<path d="M101.029 201.173H91.0903C90.5471 201.173 90.1094 200.734 90.1094 200.191C90.1094 199.647 90.5471 199.208 91.0903 199.208H101.029C101.572 199.208 102.01 199.647 102.01 200.191C102.01 200.734 101.572 201.173 101.029 201.173Z" fill="#95D165"/>
<path d="M101.029 205.704H91.0903C90.5471 205.704 90.1094 205.265 90.1094 204.721C90.1094 204.177 90.5471 203.739 91.0903 203.739H101.029C101.572 203.739 102.01 204.177 102.01 204.721C102.01 205.265 101.572 205.704 101.029 205.704Z" fill="#95D165"/>
<path d="M101.029 210.242H91.0903C90.5471 210.242 90.1094 209.804 90.1094 209.26C90.1094 208.716 90.5471 208.277 91.0903 208.277H101.029C101.572 208.277 102.01 208.716 102.01 209.26C102.01 209.804 101.572 210.242 101.029 210.242Z" fill="#95D165"/>
<path d="M101.029 214.773H91.0903C90.5471 214.773 90.1094 214.334 90.1094 213.79C90.1094 213.246 90.5471 212.808 91.0903 212.808H101.029C101.572 212.808 102.01 213.246 102.01 213.79C102.01 214.334 101.572 214.773 101.029 214.773Z" fill="#95D165"/>
<path d="M147.706 192.104H104.879C104.336 192.104 103.898 191.665 103.898 191.121C103.898 190.577 104.336 190.139 104.879 190.139H147.706C148.249 190.139 148.687 190.577 148.687 191.121C148.679 191.665 148.241 192.104 147.706 192.104Z" fill="#4CB73B"/>
<path d="M147.706 196.642H104.879C104.336 196.642 103.898 196.204 103.898 195.66C103.898 195.116 104.336 194.677 104.879 194.677H147.706C148.249 194.677 148.687 195.116 148.687 195.66C148.679 196.204 148.241 196.642 147.706 196.642Z" fill="#4CB73B"/>
<path d="M147.706 201.173H104.879C104.336 201.173 103.898 200.734 103.898 200.191C103.898 199.647 104.336 199.208 104.879 199.208H147.706C148.249 199.208 148.687 199.647 148.687 200.191C148.679 200.734 148.241 201.173 147.706 201.173Z" fill="#4CB73B"/>
<path d="M147.706 205.704H104.879C104.336 205.704 103.898 205.265 103.898 204.721C103.898 204.177 104.336 203.739 104.879 203.739H147.706C148.249 203.739 148.687 204.177 148.687 204.721C148.679 205.265 148.241 205.704 147.706 205.704Z" fill="#4CB73B"/>
<path d="M147.706 210.242H104.879C104.336 210.242 103.898 209.804 103.898 209.26C103.898 208.716 104.336 208.277 104.879 208.277H147.706C148.249 208.277 148.687 208.716 148.687 209.26C148.679 209.804 148.241 210.242 147.706 210.242Z" fill="#4CB73B"/>
<path d="M147.706 214.773H104.879C104.336 214.773 103.898 214.334 103.898 213.79C103.898 213.246 104.336 212.808 104.879 212.808H147.706C148.249 212.808 148.687 213.246 148.687 213.79C148.679 214.334 148.241 214.773 147.706 214.773Z" fill="#4CB73B"/>
<path d="M448.411 32.856C451.802 18.6788 443.077 4.43235 428.922 1.03565C414.767 -2.36104 400.544 6.37824 397.152 20.5554C393.761 34.7326 402.486 48.9791 416.641 52.3758C430.796 55.7725 445.02 47.0332 448.411 32.856Z" stroke="#FCFBDE" stroke-width="0.7896" stroke-miterlimit="10"/>
<path d="M432.053 47.7105C443.623 42.5833 448.853 29.0323 443.734 17.4435C438.615 5.85462 425.085 0.61643 413.515 5.74365C401.944 10.8709 396.714 24.4219 401.833 36.0108C406.953 47.5996 420.482 52.8377 432.053 47.7105Z" fill="#91BA39"/>
<path d="M424.86 26.7126C424.86 27.8656 423.928 28.7993 422.777 28.7993C421.626 28.7993 420.693 27.8656 420.693 26.7126C420.693 25.5597 421.626 24.6259 422.777 24.6259C423.928 24.6259 424.86 25.5597 424.86 26.7126Z" fill="white"/>
<path d="M422.548 26.2986C422.232 26.4772 421.835 26.3635 421.665 26.0469L414.928 13.876C414.75 13.5593 414.863 13.1615 415.18 12.991C415.496 12.8123 415.893 12.926 416.063 13.2427L422.8 25.4135C422.978 25.7302 422.864 26.128 422.548 26.2986Z" fill="white"/>
<path d="M423.108 27.0455C423.36 26.7938 423.773 26.7938 424.033 27.0455L429.861 32.8833C430.112 33.135 430.112 33.5491 429.861 33.8089C429.61 34.0606 429.196 34.0606 428.937 33.8089L423.108 27.9711C422.857 27.7113 422.857 27.2972 423.108 27.0455Z" fill="white"/>
<path d="M422.922 8.34667V5.70789" stroke="white" stroke-width="2" stroke-miterlimit="10" stroke-linecap="round"/>
<path d="M441.113 26.8506H443.748" stroke="white" stroke-width="2" stroke-miterlimit="10" stroke-linecap="round"/>
<path d="M422.639 45.0786V47.7174" stroke="white" stroke-width="2" stroke-miterlimit="10" stroke-linecap="round"/>
<path d="M404.439 26.5746H401.805" stroke="white" stroke-width="2" stroke-miterlimit="10" stroke-linecap="round"/>
<g opacity="0.5">
<path d="M413.729 10.7338L412.416 8.45224" stroke="#FCFBDE" stroke-miterlimit="10" stroke-linecap="round"/>
<path d="M438.73 17.6515L441.008 16.3361" stroke="#FCFBDE" stroke-miterlimit="10" stroke-linecap="round"/>
<path d="M431.824 42.6915L433.146 44.973" stroke="#FCFBDE" stroke-miterlimit="10" stroke-linecap="round"/>
<path d="M406.831 35.7738L404.545 37.0973" stroke="#FCFBDE" stroke-miterlimit="10" stroke-linecap="round"/>
</g>
<g opacity="0.5">
<path d="M406.968 17.4079L404.682 16.0925" stroke="#FCFBDE" stroke-miterlimit="10" stroke-linecap="round"/>
<path d="M432.064 10.8799L433.386 8.59027" stroke="#FCFBDE" stroke-miterlimit="10" stroke-linecap="round"/>
<path d="M438.582 36.0174L440.868 37.3327" stroke="#FCFBDE" stroke-miterlimit="10" stroke-linecap="round"/>
<path d="M413.485 42.5453L412.172 44.835" stroke="#FCFBDE" stroke-miterlimit="10" stroke-linecap="round"/>
</g>
<path d="M109.696 159.529H80.7638C76.4835 159.529 73.0059 156.054 73.0059 151.759V122.781C73.0059 118.494 76.4754 115.01 80.7638 115.01H109.696C113.976 115.01 117.454 118.486 117.454 122.781V151.759C117.454 156.054 113.984 159.529 109.696 159.529Z" fill="#1B9119"/>
<path d="M107.799 155.672H75.7782C72.3492 155.672 69.5605 152.887 69.5605 149.445V117.373C69.5605 113.939 72.3411 111.146 75.7782 111.146H107.799C111.228 111.146 114.017 113.931 114.017 117.373V149.445C114.008 152.887 111.228 155.672 107.799 155.672Z" fill="#D4FD7E" stroke="#FCFBDE" stroke-miterlimit="10"/>
<path d="M99.4808 128.318H99.2457V125.769C99.2457 121.579 95.8491 118.177 91.6662 118.177C87.4832 118.177 84.0866 121.579 84.0866 125.769V128.318H84.038C82.8625 128.318 81.9141 129.268 81.9141 130.445V140.059C81.9141 141.236 82.8625 142.186 84.038 142.186H99.4808C100.656 142.186 101.605 141.236 101.605 140.059V130.445C101.613 129.268 100.656 128.318 99.4808 128.318ZM86.0159 125.769C86.0159 122.643 88.5533 120.101 91.6743 120.101C94.7953 120.101 97.3326 122.643 97.3326 125.769V128.318H86.0159V125.769Z" fill="#FCFBDE"/>
<path d="M94.2601 133.255C94.2601 131.72 92.8658 130.51 91.2769 130.827C90.3447 131.014 89.5665 131.785 89.3719 132.719C89.1368 133.847 89.6718 134.878 90.5392 135.39C90.7176 135.495 90.8149 135.69 90.7662 135.885L90.3366 137.477C90.0772 138.418 90.7905 139.352 91.7714 139.352C92.7523 139.352 93.4576 138.418 93.2063 137.477L92.7847 135.901C92.728 135.698 92.8334 135.504 93.0117 135.398C93.7494 134.976 94.2601 134.18 94.2601 133.255Z" fill="#D4FD7E"/>
<path d="M100.697 145.555H82.8301C82.3275 145.555 81.9141 145.149 81.9141 144.638C81.9141 144.134 82.3194 143.72 82.8301 143.72H100.697C101.199 143.72 101.613 144.126 101.613 144.638C101.613 145.149 101.199 145.555 100.697 145.555Z" fill="#FCFBDE"/>
<path d="M100.697 148.657H82.8301C82.3275 148.657 81.9141 148.251 81.9141 147.74C81.9141 147.236 82.3194 146.822 82.8301 146.822H100.697C101.199 146.822 101.613 147.228 101.613 147.74C101.613 148.243 101.199 148.657 100.697 148.657Z" fill="#FCFBDE"/>
<path d="M459.832 211.866H442.8C440.279 211.866 438.236 209.82 438.236 207.295V190.236C438.236 187.711 440.279 185.665 442.8 185.665H459.832C462.353 185.665 464.396 187.711 464.396 190.236V207.295C464.396 209.82 462.353 211.866 459.832 211.866Z" fill="#1B9119"/>
<path d="M458.713 209.593H439.857C437.839 209.593 436.201 207.953 436.201 205.931V187.053C436.201 185.032 437.839 183.392 439.857 183.392H458.705C460.723 183.392 462.361 185.032 462.361 187.053V205.931C462.369 207.953 460.731 209.593 458.713 209.593Z" fill="#D4FD7E" stroke="#FCFBDE" stroke-miterlimit="10"/>
<path d="M444 204.315C443.927 204.315 443.854 204.307 443.781 204.283C443.352 204.161 443.1 203.714 443.222 203.284L447.178 189.254C447.3 188.823 447.754 188.572 448.175 188.694C448.605 188.815 448.856 189.262 448.734 189.692L444.778 203.722C444.681 204.08 444.349 204.315 444 204.315Z" fill="white"/>
<path d="M450.616 204.315C450.543 204.315 450.47 204.307 450.397 204.283C449.967 204.161 449.716 203.714 449.837 203.284L453.793 189.254C453.915 188.823 454.369 188.572 454.79 188.694C455.22 188.815 455.471 189.262 455.35 189.692L451.394 203.722C451.296 204.08 450.972 204.315 450.616 204.315Z" fill="white"/>
<path d="M456.289 194.117H442.281C441.835 194.117 441.471 193.752 441.471 193.305C441.471 192.859 441.835 192.493 442.281 192.493H456.289C456.735 192.493 457.1 192.859 457.1 193.305C457.1 193.752 456.735 194.117 456.289 194.117Z" fill="white"/>
<path d="M456.289 200.532H442.281C441.835 200.532 441.471 200.166 441.471 199.72C441.471 199.273 441.835 198.908 442.281 198.908H456.289C456.735 198.908 457.1 199.273 457.1 199.72C457.1 200.166 456.735 200.532 456.289 200.532Z" fill="white"/>
<path d="M143.921 128.61H133.788C133.172 128.61 132.678 128.115 132.678 127.498C132.678 126.881 133.172 126.386 133.788 126.386H143.921C144.538 126.386 145.032 126.881 145.032 127.498C145.032 128.107 144.538 128.61 143.921 128.61Z" fill="#FFFEF0"/>
<path d="M154.128 133.547H133.788C133.172 133.547 132.678 133.052 132.678 132.435C132.678 131.818 133.172 131.322 133.788 131.322H154.128C154.744 131.322 155.238 131.818 155.238 132.435C155.238 133.052 154.744 133.547 154.128 133.547Z" fill="#FFFEF0"/>
<path d="M136.188 138.483H133.788C133.172 138.483 132.678 137.988 132.678 137.371C132.678 136.754 133.172 136.259 133.788 136.259H136.188C136.804 136.259 137.298 136.754 137.298 137.371C137.307 137.988 136.804 138.483 136.188 138.483Z" fill="#FFFEF0"/>
<path d="M154.128 138.483H139.966C139.35 138.483 138.855 137.988 138.855 137.371C138.855 136.754 139.35 136.259 139.966 136.259H154.128C154.744 136.259 155.239 136.754 155.239 137.371C155.239 137.988 154.744 138.483 154.128 138.483Z" fill="#FFFEF0"/>
<path d="M154.128 128.61H147.984C147.368 128.61 146.873 128.115 146.873 127.498C146.873 126.881 147.368 126.386 147.984 126.386H154.128C154.744 126.386 155.239 126.881 155.239 127.498C155.239 128.107 154.744 128.61 154.128 128.61Z" fill="#FFFEF0"/>
<path d="M96.9925 280.377C95.6711 280.377 94.4389 280.742 93.377 281.368C92.9554 277.576 89.7453 274.637 85.8461 274.637C81.6631 274.637 78.2665 278.031 78.2665 282.228C78.2665 282.512 78.2827 282.789 78.3151 283.056C77.9665 282.992 77.6099 282.959 77.2451 282.959C74.0511 282.959 71.457 285.557 71.457 288.756C71.457 291.955 74.0511 294.553 77.2451 294.553H96.9844C100.892 294.553 104.061 291.379 104.061 287.465C104.069 283.552 100.9 280.377 96.9925 280.377Z" fill="white"/>
<path d="M46.7813 249.954C46.5868 248.89 46.6192 247.81 46.8786 246.771C47.7703 243.28 48.7918 236.703 46.5219 229.607C42.7362 217.761 27.3906 207.279 27.3906 207.279C27.3906 207.279 31.5574 224.752 34.9783 232.197C37.4832 237.645 41.8688 243.848 44.3089 247.112C44.9817 248.022 45.4438 249.061 45.6464 250.173C48.127 263.927 47.7703 274.572 47.7622 274.734L48.9134 274.783C48.9215 274.604 49.2863 263.846 46.7813 249.954Z" fill="#FCFBDE"/>
<path d="M59.0131 238.814C62.0612 229.16 63.4798 217.785 63.4798 217.785C63.4798 217.785 49.7231 229.16 48.5882 237.954C47.8991 243.345 48.7584 247.664 49.5285 250.214C49.8528 251.294 49.9744 252.422 49.8528 253.543C48.4585 266.493 49.5529 276.415 49.5691 276.569L50.6067 276.447C50.5905 276.301 49.5772 267.069 50.7688 254.834C50.931 253.161 51.6038 251.578 52.6658 250.262C54.6356 247.835 57.4567 243.767 59.0131 238.814Z" fill="#B4EFCF"/>
<path d="M73.0054 217.339C73.0054 217.339 58.1786 222.852 54.3037 234.974C51.9447 242.354 53.0553 249.174 53.9794 252.706C54.2389 253.697 54.2226 254.736 53.9794 255.727C50.5099 269.684 50.4531 284.128 50.4531 284.315H51.6367C51.6367 284.128 51.6934 270.025 55.0414 256.344C55.3738 254.988 55.9655 253.705 56.8005 252.585C59.3297 249.175 63.6343 243.036 66.123 237.621C69.625 230.005 73.0054 217.339 73.0054 217.339Z" fill="#FCFBDE"/>
<path d="M46.846 268.507C46.4812 263.432 45.095 258.861 43.425 255.029C43.0927 254.257 42.9711 253.421 43.0765 252.593C43.2872 250.993 43.3683 248.501 42.7279 245.342C41.5281 239.391 33.6405 226.538 22.2266 225.783C22.2266 225.783 26.1663 232.124 28.1929 237.434C30.7546 244.149 34.4187 251.172 40.4905 253.867C41.5605 254.338 42.3955 255.232 42.8414 256.311C44.3005 259.868 45.476 264.017 45.8083 268.588L46.846 268.507Z" fill="#B4EFCF"/>
<path d="M39.1207 294.545H57.9602L62.8484 264.626C63.0672 263.302 62.0458 262.1 60.7083 262.1H36.3807C35.0431 262.1 34.0217 263.302 34.2406 264.626L39.1207 294.545Z" fill="#FCFBDE"/>
<path d="M0.453125 294.545H527.553" stroke="white" stroke-width="1.1144" stroke-miterlimit="10" stroke-linecap="round"/>
</g>
<defs>
<clipPath id="clip0_2020_48639">
<rect width="528" height="295" fill="white"/>
</clipPath>
</defs>
</svg>
