<svg width="422" height="640" viewBox="0 0 422 640" fill="none" xmlns="http://www.w3.org/2000/svg">
<g opacity="0.1">
<path d="M224.786 100.571C209.62 42.0571 165.661 12.8 142.328 0H338.32V640H0.000457764C15.5554 571.124 87.1246 468.114 181.621 360.229C243.485 289.598 249.891 197.431 224.786 100.571Z" fill="#7EC594"/>
<path d="M269.742 100.571C235.777 16.4571 190.929 12.8 167.505 0H371.611V640L88.1785 634.175C88.1785 561.032 140.909 468.114 235.777 360.229C297.885 289.598 305.454 189.011 269.742 100.571Z" fill="#D6F7E0"/>
<path d="M309.527 97.2849C294.463 43.4417 248.341 8.56597 205.151 0H422V637.553L197.399 633.413C197.399 560.549 248.749 433.536 288.147 358.851C336.673 266.862 335.767 191.078 309.527 97.2849Z" fill="#E9F5ED"/>
</g>
</svg>
