<svg width="104" height="63" viewBox="0 0 104 63" fill="none" xmlns="http://www.w3.org/2000/svg">
<path opacity="0.6" d="M51.8967 0.695801C55.8623 0.695801 59.6656 2.27115 62.4697 5.07529C65.2738 7.87943 66.8492 11.6827 66.8492 15.6483C66.8492 19.614 65.2738 23.4172 62.4697 26.2213C59.6656 29.0255 55.8623 30.6008 51.8967 30.6008C47.931 30.6008 44.1278 29.0255 41.3236 26.2213C38.5195 23.4172 36.9441 19.614 36.9441 15.6483C36.9441 11.6827 38.5195 7.87943 41.3236 5.07529C44.1278 2.27115 47.931 0.695801 51.8967 0.695801ZM21.9916 11.3762C24.384 11.3762 26.6055 12.017 28.528 13.1705C27.8872 19.2796 29.6815 25.3461 33.3555 30.0882C31.2195 34.1894 26.9473 37.009 21.9916 37.009C18.5925 37.009 15.3326 35.6587 12.929 33.2552C10.5255 30.8516 9.17516 27.5917 9.17516 24.1926C9.17516 20.7935 10.5255 17.5336 12.929 15.13C15.3326 12.7265 18.5925 11.3762 21.9916 11.3762ZM81.8017 11.3762C85.2008 11.3762 88.4608 12.7265 90.8643 15.13C93.2679 17.5336 94.6182 20.7935 94.6182 24.1926C94.6182 27.5917 93.2679 30.8516 90.8643 33.2552C88.4608 35.6587 85.2008 37.009 81.8017 37.009C76.846 37.009 72.5739 34.1894 70.4378 30.0882C74.1626 25.2795 75.8915 19.2207 75.2653 13.1705C77.1878 12.017 79.4093 11.3762 81.8017 11.3762ZM24.1277 55.1657C24.1277 46.3223 36.5596 39.1451 51.8967 39.1451C67.2337 39.1451 79.6656 46.3223 79.6656 55.1657V62.6419H24.1277V55.1657ZM0.630859 62.6419V56.2337C0.630859 50.2954 8.70522 45.297 19.6419 43.8445C17.1214 46.7495 15.5834 50.7654 15.5834 55.1657V62.6419H0.630859ZM103.162 62.6419H88.2099V55.1657C88.2099 50.7654 86.672 46.7495 84.1514 43.8445C95.0881 45.297 103.162 50.2954 103.162 56.2337V62.6419Z" fill="#7A897F"/>
</svg>
