<svg width="42" height="26" viewBox="0 0 42 26" fill="none" xmlns="http://www.w3.org/2000/svg">
<path d="M21 0.5C22.6245 0.5 24.1824 1.13577 25.331 2.26746C26.4797 3.39914 27.125 4.93404 27.125 6.53448C27.125 8.13493 26.4797 9.66982 25.331 10.8015C24.1824 11.9332 22.6245 12.569 21 12.569C19.3755 12.569 17.8176 11.9332 16.669 10.8015C15.5203 9.66982 14.875 8.13493 14.875 6.53448C14.875 4.93404 15.5203 3.39914 16.669 2.26746C17.8176 1.13577 19.3755 0.5 21 0.5ZM8.75 4.81034C9.73 4.81034 10.64 5.06897 11.4275 5.53448C11.165 8 11.9 10.4483 13.405 12.3621C12.53 14.0172 10.78 15.1552 8.75 15.1552C7.35761 15.1552 6.02226 14.6102 5.03769 13.6402C4.05312 12.6702 3.5 11.3546 3.5 9.98276C3.5 8.61095 4.05312 7.29532 5.03769 6.32531C6.02226 5.35529 7.35761 4.81034 8.75 4.81034ZM33.25 4.81034C34.6424 4.81034 35.9777 5.35529 36.9623 6.32531C37.9469 7.29532 38.5 8.61095 38.5 9.98276C38.5 11.3546 37.9469 12.6702 36.9623 13.6402C35.9777 14.6102 34.6424 15.1552 33.25 15.1552C31.22 15.1552 29.47 14.0172 28.595 12.3621C30.1208 10.4214 30.829 7.9762 30.5725 5.53448C31.36 5.06897 32.27 4.81034 33.25 4.81034ZM9.625 22.4828C9.625 18.9138 14.7175 16.0172 21 16.0172C27.2825 16.0172 32.375 18.9138 32.375 22.4828V25.5H9.625V22.4828ZM0 25.5V22.9138C0 20.5172 3.3075 18.5 7.7875 17.9138C6.755 19.0862 6.125 20.7069 6.125 22.4828V25.5H0ZM42 25.5H35.875V22.4828C35.875 20.7069 35.245 19.0862 34.2125 17.9138C38.6925 18.5 42 20.5172 42 22.9138V25.5Z" fill="#00C5FF"/>
</svg>
