<svg width="33" height="32" viewBox="0 0 33 32" fill="none" xmlns="http://www.w3.org/2000/svg">
<path d="M16.75 18.8C15.25 18.8 13.95 17.6 13.95 16C13.95 14.5 15.15 13.2 16.75 13.2C18.25 13.2 19.55 14.4 19.55 16C19.55 17.5 18.25 18.8 16.75 18.8Z" fill="white"/>
<path fill-rule="evenodd" clip-rule="evenodd" d="M20.15 9.2H13.35C12.55 9.3 12.15 9.4 11.85 9.5C11.45 9.6 11.15 9.8 10.85 10.1C10.6126 10.3374 10.5005 10.5748 10.3649 10.8617C10.3292 10.9373 10.2917 11.0166 10.25 11.1C10.2345 11.1464 10.2167 11.1952 10.1975 11.2475C10.0929 11.5333 9.95 11.9238 9.95 12.6V19.4C10.05 20.2 10.15 20.6 10.25 20.9C10.35 21.3 10.55 21.6 10.85 21.9C11.0874 22.1374 11.3248 22.2495 11.6117 22.3851C11.6874 22.4209 11.7665 22.4583 11.85 22.5C11.8964 22.5155 11.9452 22.5333 11.9975 22.5525C12.2833 22.6571 12.6738 22.8 13.35 22.8H20.15C20.95 22.7 21.35 22.6 21.65 22.5C22.05 22.4 22.35 22.2 22.65 21.9C22.8874 21.6626 22.9995 21.4252 23.1351 21.1383C23.1709 21.0626 23.2083 20.9835 23.25 20.9C23.2655 20.8536 23.2833 20.8048 23.3025 20.7525C23.4071 20.4667 23.55 20.0762 23.55 19.4V12.6C23.45 11.8 23.35 11.4 23.25 11.1C23.15 10.7 22.95 10.4 22.65 10.1C22.4126 9.86261 22.1752 9.75045 21.8883 9.61488C21.8127 9.57918 21.7333 9.54167 21.65 9.5C21.6036 9.48453 21.5548 9.46666 21.5025 9.44752C21.2167 9.3429 20.8262 9.2 20.15 9.2ZM16.75 11.7C14.35 11.7 12.45 13.6 12.45 16C12.45 18.4 14.35 20.3 16.75 20.3C19.15 20.3 21.05 18.4 21.05 16C21.05 13.6 19.15 11.7 16.75 11.7ZM22.15 11.6C22.15 12.1523 21.7023 12.6 21.15 12.6C20.5977 12.6 20.15 12.1523 20.15 11.6C20.15 11.0477 20.5977 10.6 21.15 10.6C21.7023 10.6 22.15 11.0477 22.15 11.6Z" fill="white"/>
<path fill-rule="evenodd" clip-rule="evenodd" d="M0.75 16C0.75 7.16344 7.91344 0 16.75 0C25.5866 0 32.75 7.16344 32.75 16C32.75 24.8366 25.5866 32 16.75 32C7.91344 32 0.75 24.8366 0.75 16ZM13.35 7.7H20.15C21.05 7.8 21.65 7.9 22.15 8.1C22.75 8.4 23.15 8.6 23.65 9.1C24.15 9.6 24.45 10.1 24.65 10.6C24.85 11.1 25.05 11.7 25.05 12.6V19.4C24.95 20.3 24.85 20.9 24.65 21.4C24.35 22 24.15 22.4 23.65 22.9C23.15 23.4 22.65 23.7 22.15 23.9C21.65 24.1 21.05 24.3 20.15 24.3H13.35C12.45 24.2 11.85 24.1 11.35 23.9C10.75 23.6 10.35 23.4 9.85 22.9C9.35 22.4 9.05 21.9 8.85 21.4C8.65 20.9 8.45 20.3 8.45 19.4V12.6C8.55 11.7 8.65 11.1 8.85 10.6C9.15 10 9.35 9.6 9.85 9.1C10.35 8.6 10.85 8.3 11.35 8.1C11.85 7.9 12.45 7.7 13.35 7.7Z" fill="white"/>
</svg>
