<svg width="27" height="21" viewBox="0 0 27 21" fill="none" xmlns="http://www.w3.org/2000/svg">
<path d="M0 9.76074H9C10.1046 9.76074 11 10.6562 11 11.7607V19.0002C11 20.1048 10.1046 21.0002 9 21.0002H2C0.895431 21.0002 0 20.1048 0 19.0002V9.76074Z" fill="white"/>
<path d="M8.25 0L0 9.76074V15.9718L13.5 0H8.25Z" fill="white"/>
<path d="M13.5 9.76074H22.5C23.6046 9.76074 24.5 10.6562 24.5 11.7607V19.0002C24.5 20.1048 23.6046 21.0002 22.5 21.0002H15.5C14.3954 21.0002 13.5 20.1048 13.5 19.0002V9.76074Z" fill="white"/>
<path d="M21.75 0L13.5 9.76074V15.9718L27 0H21.75Z" fill="white"/>
</svg>
