<svg width="536" height="485" viewBox="0 0 536 485" fill="none" xmlns="http://www.w3.org/2000/svg">
<g opacity="0.02">
<path d="M268 175.975C267.881 176.104 267.762 176.26 267.643 176.364C259.789 167.267 251.506 158.559 242.842 150.317C194.026 103.641 133.643 70.986 67 58.0536V0.155502C145.448 15.3946 215.185 57.9758 267.643 118.491C267.786 118.621 267.905 118.751 268 118.906V118.103C320.577 57.5871 390.456 15.1095 469 0V57.8981C402.071 70.7528 341.45 103.486 292.444 150.317C283.947 158.455 275.783 167.008 268 175.975Z" fill="#46AC66"/>
<path d="M58.9669 94.0451C120.286 105.026 176.505 130.79 223.787 167.585C232.352 174.219 240.596 181.225 248.542 188.579C255.127 194.641 261.514 200.976 267.629 207.51C267.777 207.635 267.901 207.784 268 207.883V207.113C274.04 200.703 280.279 194.517 286.74 188.554C294.686 181.2 302.93 174.194 311.495 167.56C359.025 130.666 415.492 104.803 477.083 93.8961C496.268 90.4924 515.948 88.5296 536 88.1818V365.696C515.948 366.069 496.268 368.032 477.083 371.41C439.331 378.094 403.51 390.392 370.487 407.41C370.363 404.951 370.214 402.466 370.041 400.031C369.843 402.69 369.645 405.348 369.373 408.007C368.407 408.503 367.442 409 366.476 409.522C329.64 429.05 296.394 454.516 268 484.627C267.876 484.752 267.752 484.901 267.629 485C239.185 454.714 205.815 429.124 168.806 409.497C167.84 409 166.9 408.503 165.909 407.982C165.637 405.348 165.439 402.69 165.241 400.007C165.068 402.466 164.919 404.926 164.771 407.385C131.995 390.466 96.3968 378.218 58.9174 371.535C39.7569 368.081 20.0517 366.094 0 365.671V88.1818C20.126 88.6042 39.8064 90.5917 58.9669 94.0451Z" fill="#46AC66"/>
</g>
</svg>
