<svg width="125" height="24" viewBox="0 0 125 24" fill="none" xmlns="http://www.w3.org/2000/svg">
<path d="M37.2719 16.8831C41.1574 16.8831 43.0419 14.9403 43.0419 12.6673C43.0419 7.6744 35.1349 9.40345 35.1349 6.8973C35.1349 6.04248 35.8537 5.34309 37.7187 5.34309C38.9232 5.34309 40.2249 5.69279 41.4877 6.41161L42.459 4.02202C41.1963 3.22549 39.4478 2.81751 37.7382 2.81751C33.8721 2.81751 32.007 4.74084 32.007 7.05272C32.007 12.1039 39.914 10.3554 39.914 12.9004C39.914 13.7358 39.1564 14.3575 37.2913 14.3575C35.6594 14.3575 33.9498 13.7746 32.8036 12.9393L31.735 15.3094C32.9396 16.2419 35.1154 16.8831 37.2719 16.8831Z" fill="#233D2C"/>
<path d="M50.0299 16.8053C52.2252 16.8053 53.9542 15.834 54.7119 14.1632L52.3612 12.881C51.7978 13.8912 50.9624 14.3186 50.0104 14.3186C48.4757 14.3186 47.2712 13.2501 47.2712 11.4239C47.2712 9.59772 48.4757 8.52921 50.0104 8.52921C50.9624 8.52921 51.7978 8.97604 52.3612 9.96685L54.7119 8.70406C53.9542 6.99443 52.2252 6.04249 50.0299 6.04249C46.6301 6.04249 44.2016 8.27665 44.2016 11.4239C44.2016 14.5712 46.6301 16.8053 50.0299 16.8053Z" fill="#233D2C"/>
<path d="M62.7338 6.04249C61.3933 6.04249 60.2277 6.46989 59.4117 7.28585V2.23469H56.381V16.6499H59.4117V11.4822C59.4117 9.55887 60.4608 8.6652 61.9179 8.6652C63.2584 8.6652 64.0355 9.4423 64.0355 11.1325V16.6499H67.0662V10.6662C67.0662 7.48012 65.2011 6.04249 62.7338 6.04249Z" fill="#233D2C"/>
<path d="M74.9006 16.8053C78.2227 16.8053 80.6317 14.5712 80.6317 11.4239C80.6317 8.27665 78.2227 6.04249 74.9006 6.04249C71.5785 6.04249 69.1501 8.27665 69.1501 11.4239C69.1501 14.5712 71.5785 16.8053 74.9006 16.8053ZM74.9006 14.3186C73.3853 14.3186 72.2196 13.2307 72.2196 11.4239C72.2196 9.61715 73.3853 8.52921 74.9006 8.52921C76.416 8.52921 77.5622 9.61715 77.5622 11.4239C77.5622 13.2307 76.416 14.3186 74.9006 14.3186Z" fill="#233D2C"/>
<path d="M82.6575 16.6499H85.6882V2.23469H82.6575V16.6499Z" fill="#233D2C"/>
<path d="M92.7167 6.04249C91.046 6.04249 89.3558 6.48932 88.2095 7.30527L89.2975 9.42288C90.0552 8.82062 91.2014 8.4515 92.3088 8.4515C93.9407 8.4515 94.7178 9.20917 94.7178 10.5108H92.3088C89.1226 10.5108 87.821 11.793 87.821 13.6387C87.821 15.4454 89.2781 16.8053 91.7259 16.8053C93.2607 16.8053 94.3486 16.3002 94.912 15.3483V16.6499H97.7485V10.6857C97.7485 7.51898 95.9029 6.04249 92.7167 6.04249ZM92.4836 14.7655C91.4151 14.7655 90.774 14.2603 90.774 13.5027C90.774 12.8033 91.2208 12.2787 92.639 12.2787H94.7178V13.3472C94.3681 14.2992 93.4938 14.7655 92.4836 14.7655Z" fill="#233D2C"/>
<path d="M103.386 7.57726V6.1979H100.491V16.6499H103.522V11.7153C103.522 9.71429 104.629 8.8012 106.3 8.8012C106.533 8.8012 106.728 8.82062 106.98 8.84005V6.04249C105.368 6.04249 104.124 6.56703 103.386 7.57726Z" fill="#233D2C"/>
<path d="M108.782 16.6499H111.813V2.23469H108.782V16.6499Z" fill="#233D2C"/>
<path d="M122.086 6.1979L119.133 13.289L116.199 6.1979H113.071L117.598 16.7276L117.559 16.8248C117.151 17.7573 116.685 18.1264 115.85 18.1264C115.247 18.1264 114.606 17.8739 114.14 17.4659L113.033 19.6223C113.713 20.2246 114.878 20.5743 115.947 20.5743C117.831 20.5743 119.269 19.8166 120.279 17.291L125 6.1979H122.086Z" fill="#233D2C"/>
<path d="M12.7963 8.41536C12.7907 8.42156 12.785 8.42899 12.7793 8.43395C12.4043 7.99893 12.0088 7.5825 11.5951 7.18838C9.26428 4.95626 6.38112 3.39465 3.19908 2.7762V0.0074363C6.9448 0.736189 10.2746 2.77248 12.7793 5.66642C12.7861 5.67262 12.7918 5.67882 12.7963 5.68625V5.64783C15.3067 2.75389 18.6433 0.722556 22.3936 0V2.76876C19.1979 3.3835 16.3034 4.94883 13.9635 7.18838C13.5578 7.57754 13.168 7.98654 12.7963 8.41536Z" fill="#233D2C"/>
<path d="M2.81553 4.49737C5.74334 5.02251 8.42766 6.25457 10.6853 8.01415C11.0943 8.33138 11.4879 8.66642 11.8673 9.0181C12.1817 9.308 12.4867 9.61096 12.7786 9.92344C12.7857 9.92938 12.7916 9.93651 12.7963 9.94126V9.90443C13.0847 9.59789 13.3826 9.30206 13.6911 9.01691C14.0705 8.66523 14.4641 8.33019 14.8731 8.01297C17.1426 6.24863 19.8387 5.01182 22.7795 4.49024C23.6956 4.32747 24.6353 4.23361 25.5927 4.21698V17.4881C24.6353 17.5059 23.6956 17.5998 22.7795 17.7614C20.977 18.081 19.2666 18.6691 17.6898 19.4829C17.6839 19.3653 17.6768 19.2465 17.6685 19.1301C17.6591 19.2572 17.6496 19.3843 17.6366 19.5114C17.5905 19.5352 17.5444 19.559 17.4983 19.5839C15.7395 20.5178 14.1521 21.7356 12.7963 23.1755C12.7904 23.1815 12.7845 23.1886 12.7786 23.1934C11.4205 21.7451 9.82715 20.5213 8.06006 19.5827C8.01396 19.559 7.96905 19.5352 7.92177 19.5102C7.90876 19.3843 7.89931 19.2572 7.88985 19.1289C7.88158 19.2465 7.87449 19.3641 7.8674 19.4817C6.30243 18.6726 4.60271 18.0869 2.81316 17.7673C1.89829 17.6021 0.957421 17.5071 0 17.4869V4.21698C0.960967 4.23717 1.90066 4.33222 2.81553 4.49737Z" fill="#233D2C"/>
</svg>
