<svg width="104" height="83" viewBox="0 0 104 83" fill="none" xmlns="http://www.w3.org/2000/svg">
<path opacity="0.6" d="M65.6904 10.7897C67.1803 11.0204 67.8211 12.8628 66.7317 13.9554L60.6439 19.8333L62.0857 28.164C62.1658 29.6699 60.756 30.8234 59.3783 30.1345L51.9287 26.2095L44.4151 30.1826C43.0373 30.8715 41.4833 29.718 41.7076 28.2281L43.1494 19.8814L37.0616 13.9554C35.9722 12.8628 36.613 11.0204 38.103 10.7897L46.4817 9.58178L50.2626 1.92748C50.9514 0.54635 52.906 0.603864 53.5308 1.92748L57.3116 9.58178L65.6904 10.7897ZM62.1498 41.9257C64.9855 41.9257 67.2764 44.2166 67.2764 47.0522V77.8117C67.2764 80.6473 64.9855 82.9383 62.1498 82.9383H41.6435C38.8079 82.9383 36.5169 80.6473 36.5169 77.8117V47.0522C36.5169 44.2166 38.8079 41.9257 41.6435 41.9257H62.1498ZM26.2638 52.1788C29.0994 52.1788 31.3903 54.4697 31.3903 57.3054V77.8117C31.3903 80.6473 29.0994 82.9383 26.2638 82.9383H5.75744C2.92661 82.9383 0.630859 80.6473 0.630859 77.8117V57.3054C0.630859 54.4697 2.92661 52.1788 5.75744 52.1788H26.2638ZM72.403 67.5585C72.403 64.7229 74.6939 62.432 77.5296 62.432H98.0359C100.872 62.432 103.162 64.7229 103.162 67.5585V77.8117C103.162 80.6473 100.872 82.9383 98.0359 82.9383H77.5296C74.6939 82.9383 72.403 80.6473 72.403 77.8117V67.5585Z" fill="#7A897F"/>
</svg>
