<svg width="42" height="32" viewBox="0 0 42 32" fill="none" xmlns="http://www.w3.org/2000/svg">
<path d="M2.625 31.75C2.625 31.75 0 31.75 0 29.125C0 26.5 2.625 18.625 15.75 18.625C28.875 18.625 31.5 26.5 31.5 29.125C31.5 31.75 28.875 31.75 28.875 31.75H2.625ZM15.75 16C17.8386 16 19.8416 15.1703 21.3185 13.6935C22.7953 12.2166 23.625 10.2136 23.625 8.12501C23.625 6.03642 22.7953 4.03339 21.3185 2.55654C19.8416 1.07969 17.8386 0.25 15.75 0.25C13.6614 0.25 11.6584 1.07969 10.1815 2.55654C8.70469 4.03339 7.875 6.03642 7.875 8.12501C7.875 10.2136 8.70469 12.2166 10.1815 13.6935C11.6584 15.1703 13.6614 16 15.75 16Z" fill="#F8C343"/>
<path fill-rule="evenodd" clip-rule="evenodd" d="M35.4375 8.12501C35.7856 8.12501 36.1194 8.26329 36.3656 8.50943C36.6117 8.75557 36.75 9.08941 36.75 9.43751V13.375H40.6875C41.0356 13.375 41.3694 13.5133 41.6156 13.7594C41.8617 14.0056 42 14.3394 42 14.6875C42 15.0356 41.8617 15.3694 41.6156 15.6156C41.3694 15.8617 41.0356 16 40.6875 16H36.75V19.9375C36.75 20.2856 36.6117 20.6194 36.3656 20.8656C36.1194 21.1117 35.7856 21.25 35.4375 21.25C35.0894 21.25 34.7556 21.1117 34.5094 20.8656C34.2633 20.6194 34.125 20.2856 34.125 19.9375V16H30.1875C29.8394 16 29.5056 15.8617 29.2594 15.6156C29.0133 15.3694 28.875 15.0356 28.875 14.6875C28.875 14.3394 29.0133 14.0056 29.2594 13.7594C29.5056 13.5133 29.8394 13.375 30.1875 13.375H34.125V9.43751C34.125 9.08941 34.2633 8.75557 34.5094 8.50943C34.7556 8.26329 35.0894 8.12501 35.4375 8.12501Z" fill="#F8C343"/>
</svg>
