<svg width="94" height="71" viewBox="0 0 94 71" fill="none" xmlns="http://www.w3.org/2000/svg">
<g opacity="0.6">
<path d="M6.32991 70.4838C6.32991 70.4838 0.521484 70.4838 0.521484 64.6754C0.521484 58.867 6.32991 41.4417 35.372 41.4417C64.4141 41.4417 70.2225 58.867 70.2225 64.6754C70.2225 70.4838 64.4141 70.4838 64.4141 70.4838H6.32991ZM35.372 35.6333C39.9935 35.6333 44.4257 33.7974 47.6935 30.5295C50.9614 27.2616 52.7973 22.8295 52.7973 18.208C52.7973 13.5865 50.9614 9.15433 47.6935 5.88646C44.4257 2.61859 39.9935 0.782715 35.372 0.782715C30.7505 0.782715 26.3184 2.61859 23.0505 5.88646C19.7826 9.15433 17.9467 13.5865 17.9467 18.208C17.9467 22.8295 19.7826 27.2616 23.0505 30.5295C26.3184 33.7974 30.7505 35.6333 35.372 35.6333Z" fill="#7A897F"/>
<path fill-rule="evenodd" clip-rule="evenodd" d="M78.9352 18.208C79.7054 18.208 80.4441 18.514 80.9888 19.0586C81.5334 19.6033 81.8394 20.342 81.8394 21.1122V29.8248H90.552C91.3223 29.8248 92.061 30.1308 92.6056 30.6755C93.1502 31.2201 93.4562 31.9588 93.4562 32.729C93.4562 33.4993 93.1502 34.238 92.6056 34.7826C92.061 35.3273 91.3223 35.6333 90.552 35.6333H81.8394V44.3459C81.8394 45.1161 81.5334 45.8548 80.9888 46.3995C80.4441 46.9441 79.7054 47.2501 78.9352 47.2501C78.1649 47.2501 77.4262 46.9441 76.8816 46.3995C76.3369 45.8548 76.031 45.1161 76.031 44.3459V35.6333H67.3183C66.5481 35.6333 65.8094 35.3273 65.2647 34.7826C64.7201 34.238 64.4141 33.4993 64.4141 32.729C64.4141 31.9588 64.7201 31.2201 65.2647 30.6755C65.8094 30.1308 66.5481 29.8248 67.3183 29.8248H76.031V21.1122C76.031 20.342 76.3369 19.6033 76.8816 19.0586C77.4262 18.514 78.1649 18.208 78.9352 18.208Z" fill="#7A897F"/>
</g>
</svg>
