<svg width="897" height="638" viewBox="0 0 897 638" fill="none" xmlns="http://www.w3.org/2000/svg">
<path d="M285.781 550.118C289.172 521.694 296.779 489.094 308.365 453.224C320.472 416.272 334.791 380.292 351.224 345.535C368.329 309.053 387.425 273.806 408.402 239.999C428.058 207.945 449.891 177.666 473.704 149.433C495.534 123.774 516.257 104.443 535.026 91.9724C553.111 79.9271 568.701 74.7953 581.347 76.6566C593.993 78.5179 603.012 87.2926 608.216 102.848C613.586 118.802 614.598 141.43 611.207 169.855C607.816 198.279 600.21 231.012 588.624 266.749C576.518 303.706 562.19 339.686 545.74 374.438C528.669 410.933 509.596 446.189 488.634 480.001C468.97 512.048 447.138 542.327 423.332 570.566C401.36 596.225 380.708 615.556 361.963 628.027C343.853 640.072 328.264 645.204 315.641 643.343C303.019 641.482 293.976 632.707 288.772 617.152C283.379 601.198 282.39 578.57 285.781 550.145V550.118ZM283.968 552.246C269.838 669.827 332.197 679.08 423.049 572.879C513.902 466.679 598.962 285.335 612.997 167.754C627.032 50.1729 564.792 40.9196 474.057 147.12C383.322 253.321 298.144 434.665 284.086 552.246H283.968Z" stroke="#5CF843" stroke-opacity="0.1" stroke-width="2"/>
<path d="M270.048 546.901C276.359 515.711 287.192 480.426 302.263 442.322C317.82 403.271 335.557 365.375 355.367 328.863C375.683 291.1 397.976 254.74 422.129 219.976C444.339 187.582 468.747 157.187 495.131 129.065C519.222 103.831 541.358 85.4576 560.928 74.4759C579.767 63.8399 595.545 60.5162 607.626 64.5578C619.706 68.5995 627.595 79.8205 631.01 97.9017C634.542 116.515 633.129 141.935 626.818 173.098C620.507 204.262 609.674 239.573 594.603 277.677C579.048 316.733 561.303 354.63 541.476 391.136C521.168 428.899 498.882 465.259 474.738 500.023C452.475 532.416 428.02 562.811 401.594 590.934C377.503 616.168 355.367 634.541 335.821 645.523C316.982 656.159 301.204 659.483 289.123 655.441C277.042 651.399 269.153 640.178 265.739 622.097C262.206 603.484 263.596 578.064 269.93 546.901H270.048ZM267.952 548.975C241.836 677.91 301.439 697.879 401.076 593.486C500.712 489.094 602.68 299.986 628.796 171.024C654.912 42.0627 595.309 22.1202 495.649 126.513C395.989 230.905 294.068 420.013 267.952 548.975Z" stroke="#5CF843" stroke-opacity="0.1" stroke-width="2"/>
<path d="M255.07 540.839C266.292 502.29 280.476 464.922 297.458 429.161C316.625 388.305 337.944 348.783 361.3 310.809C384.855 272.115 410.386 235.003 437.764 199.662C462.573 167.315 489.588 137.211 518.561 109.628C544.677 85.1922 568.156 68.1481 588.338 58.8947C607.86 49.9605 623.497 48.6842 634.847 55.0658C646.198 61.4474 652.65 75.1678 654.063 95.8549C655.523 117.286 651.473 145.286 642.03 179.082C630.816 217.634 616.632 255.003 599.641 290.76C580.566 331.596 559.333 371.1 536.058 409.059C512.496 447.746 486.965 484.857 459.594 520.205C434.785 552.552 407.77 582.656 378.797 610.239C352.681 634.675 329.202 651.719 308.997 660.972C289.499 669.907 273.862 671.183 262.511 664.801C251.16 658.42 244.708 644.699 243.295 624.012C241.835 602.581 245.885 574.582 255.329 540.786L255.07 540.839ZM253.186 542.78C214.118 682.564 270.023 713.993 377.996 613.031C485.969 512.068 604.987 316.924 644.055 177.167C683.123 37.41 627.217 5.95399 519.244 106.916C411.271 207.879 291.971 403.076 252.974 542.833L253.186 542.78Z" stroke="#5CF843" stroke-opacity="0.1" stroke-width="2"/>
<path d="M241.199 531.771C256.044 490.896 273.803 451.448 294.303 413.818C339.96 329.229 393.853 250.673 454.979 179.613C482.216 147.681 511.685 118.275 543.1 91.6801C571.1 68.4936 595.756 53.0714 616.385 45.8921C636.331 38.9521 651.708 39.9359 662.046 48.817C672.385 57.6981 677.236 73.9977 676.412 97.2906C675.587 121.408 668.687 152.013 655.924 188.228C641.079 229.104 623.32 268.552 602.82 306.182C580.088 348.463 555.218 389.231 528.334 428.283C501.529 467.484 472.752 504.913 442.144 540.387C414.899 572.319 385.422 601.725 354 628.32C326.023 651.506 301.367 666.928 280.715 674.108C260.792 681.048 245.391 680.064 235.076 671.183C224.762 662.302 219.887 646.002 220.688 622.709C221.536 598.592 228.436 567.987 241.199 531.771V531.771ZM238.844 533.659C186.047 683.494 237.102 727.208 352.893 631.298C468.684 535.388 605.34 336.149 658.137 186.341C710.935 36.5324 659.88 -7.20816 544.089 88.702C428.297 184.612 291.642 383.825 238.844 533.659V533.659Z" stroke="#5CF843" stroke-opacity="0.1" stroke-width="2"/>
<path d="M228.532 519.487C247.109 476.606 268.553 435.387 292.68 396.189C319.063 352.858 347.579 311.232 378.093 271.508C408.066 232.226 440.028 194.938 473.82 159.83C507.213 125.263 539.193 96.918 568.888 75.3801C598.584 53.8422 624.205 40.4674 645.046 35.6546C665.181 31.0014 680.017 34.4581 689.154 45.945C698.291 57.4318 701.282 76.3905 698.032 102.236C694.641 129.012 684.703 162.064 668.431 200.619C649.872 243.51 628.426 284.73 604.283 323.917C577.915 367.254 549.407 408.88 518.893 448.598C488.921 487.879 456.958 525.168 423.166 560.276C389.773 594.843 357.793 623.188 328.098 644.725C298.402 666.263 272.781 679.638 251.94 684.451C231.805 689.104 216.969 685.648 207.832 674.161C198.695 662.674 195.705 643.715 198.954 617.87C202.322 591.093 212.283 558.042 228.532 519.487V519.487ZM226.177 521.268C158.944 680.197 204.017 736.833 326.826 647.783C449.635 558.733 603.647 357.66 670.88 198.731C738.113 39.8027 693.04 -16.8341 570.231 72.2159C447.422 161.266 293.339 362.34 226.106 521.268H226.177Z" stroke="#5CF843" stroke-opacity="0.1" stroke-width="2"/>
<path d="M217.651 503.878C240.024 459.316 265.249 416.659 293.126 376.246C323.129 332.327 355.277 290.329 389.419 250.449C422.438 211.546 457.462 174.877 494.307 140.632C530.455 107.315 564.601 80.5652 595.757 61.1279C626.912 41.6906 653.311 30.8418 674.081 28.6615C694.145 26.5874 708.227 32.7563 715.905 46.982C723.582 61.2076 724.476 82.7987 718.589 111.117C712.466 140.366 699.279 175.784 679.403 216.121C657.022 260.678 631.797 303.334 603.928 343.753C573.911 387.66 541.765 429.657 507.636 469.551C474.591 508.463 439.536 545.132 402.653 579.367C366.529 612.685 332.383 639.434 301.204 658.871C270.025 678.309 243.697 689.211 222.903 691.391C202.839 693.465 188.756 687.296 181.079 673.071C173.402 658.845 172.484 637.254 178.395 608.935C184.517 579.686 197.705 544.269 217.58 503.931L217.651 503.878ZM215.014 505.527C132.874 672.432 170.553 742.444 299.579 662.115C428.605 581.787 599.713 381.405 681.947 214.526C764.18 47.6467 726.313 -22.4446 597.405 57.8839C468.497 138.212 297.271 338.595 215.014 505.474V505.527Z" stroke="#5CF843" stroke-opacity="0.1" stroke-width="2"/>
<path d="M208.585 484.734C234.786 438.922 263.832 395.267 295.505 354.097C329.082 310.066 364.814 268.192 402.536 228.672C438.497 190.694 476.482 155.237 516.279 122.498C554.994 90.909 591.024 66.3665 623.428 49.535C655.831 32.7035 682.607 24.567 703.071 25.3647C722.829 26.1624 735.852 35.203 741.833 52.2737C747.814 69.3445 746.402 93.5149 737.641 124.2C728.598 156.108 712.02 193.334 688.4 235.266C662.206 281.076 633.167 324.732 601.503 365.903C567.942 409.94 532.216 451.814 494.496 491.328C458.532 529.313 420.539 564.77 380.73 597.502C342.039 629.091 305.985 653.634 273.605 670.465C241.225 687.297 214.426 695.433 193.961 694.635C174.204 693.838 161.157 684.797 155.199 667.726C149.242 650.656 150.631 626.485 159.391 595.8C168.434 564.025 185.013 526.666 208.633 484.734H208.585ZM205.971 486.116C108.289 659.483 137.679 743.561 271.674 673.895C405.668 604.229 593.379 407.251 690.99 233.884C788.602 60.5167 759.283 -23.561 625.288 46.1049C491.293 115.771 303.606 312.75 205.877 486.116H205.971Z" stroke="#5CF843" stroke-opacity="0.1" stroke-width="2"/>
<path d="M201.826 462.025C231.865 415.4 264.757 371.206 300.262 329.767C337.29 286.169 376.492 244.993 417.678 206.442C456.36 169.917 497.082 136.238 539.592 105.613C580.591 76.3639 618.27 54.5866 651.568 40.813C684.867 27.0394 711.807 22.2 731.635 26.1885C750.781 30.0972 762.508 42.1425 766.512 62.1648C770.515 82.1871 766.512 108.883 754.737 141.749C742.562 175.784 722.498 214.898 695.087 257.974C665.086 304.588 632.242 348.781 596.793 390.232C559.759 433.824 520.557 474.999 479.377 513.557C440.694 550.082 399.972 583.761 357.463 614.386C316.463 643.635 278.785 665.413 245.486 679.186C212.188 692.96 185.248 697.799 165.419 693.811C146.274 689.902 134.523 677.857 130.519 657.834C126.516 637.812 130.519 611.116 142.294 578.25C154.469 544.215 174.533 505.101 201.944 462.025H201.826ZM199.212 463.142C85.8229 641.295 105.557 739.678 243.273 682.723C380.988 625.767 584.594 435.09 698.007 256.857C811.42 78.6241 791.662 -19.6793 653.923 37.2766C516.184 94.2324 312.507 284.909 199.094 463.142H199.212Z" stroke="#5CF843" stroke-opacity="0.1" stroke-width="2"/>
<path d="M197.684 435.781C231.494 388.849 268.171 344.646 307.447 303.496C347.771 260.913 390.28 221.048 434.754 184.106C475.915 149.573 519.119 118.257 564.062 90.3767C607.039 64.1323 646.013 45.6523 679.877 35.4417C713.741 25.2311 740.445 23.9016 759.285 31.6127C777.488 38.9782 787.544 54.2674 789.404 77.1348C791.265 100.002 784.53 129.251 769.623 164.111C754.175 200.167 730.508 240.663 699.258 284.484C665.448 331.416 628.771 375.619 589.495 416.769C549.166 459.345 506.657 499.21 462.188 536.158C421.073 570.593 377.925 601.82 333.045 629.622C290.044 655.866 251.094 674.347 217.23 684.557C183.366 694.768 156.426 696.097 137.587 688.519C119.383 681.154 109.328 665.864 107.444 642.997C105.56 620.129 112.342 590.88 127.249 556.021C142.767 519.965 166.434 479.468 197.684 435.781ZM194.905 436.605C65.691 617.843 74.4984 730.531 214.545 688.306C354.592 646.081 572.87 464.95 702.013 283.659C831.157 102.369 822.42 -10.2665 682.373 31.9584C542.326 74.1833 324.025 255.315 194.905 436.605V436.605Z" stroke="#5CF843" stroke-opacity="0.1" stroke-width="2"/>
<path d="M196.46 405.575C233.952 358.884 274.33 315.256 317.291 275.018C360.696 234.052 406.312 196.168 453.876 161.585C497.172 129.704 542.503 101.495 589.495 77.1882C634.098 54.5601 673.966 39.9622 707.995 33.8199C742.023 27.6776 768.163 30.31 785.707 41.7969C802.663 52.8051 810.905 71.4447 810.222 97.2371C809.539 123.029 799.978 154.592 781.751 191.153C762.912 228.991 735.595 270.498 700.553 314.531C663.07 361.221 622.699 404.85 579.746 445.088C536.336 486.047 490.72 523.931 443.161 558.521C399.827 590.407 354.457 618.617 307.423 642.917C262.821 665.546 222.953 680.143 188.924 686.286C154.895 692.428 128.732 689.796 111.212 678.309C94.2799 667.3 86.0376 648.661 86.7206 622.869C87.4035 597.076 97.0116 565.514 115.215 528.846C134.054 491.009 161.395 449.502 196.413 405.469L196.46 405.575ZM193.634 405.974C48.7358 588.115 45.274 715.136 186.122 689.689C326.969 664.243 558.458 495.954 703.356 313.813C848.254 131.671 851.716 4.65061 710.868 30.0973C570.02 55.5439 338.532 223.938 193.634 406.08V405.974Z" stroke="#5CF843" stroke-opacity="0.1" stroke-width="2"/>
<path d="M198.389 371.966C239.381 326.097 283.292 283.679 329.77 245.052C375.938 206.347 424.319 171.127 474.598 139.622C519.773 110.934 566.94 86.4433 615.634 66.3932C661.437 48.0461 701.777 37.9419 735.546 36.3465C769.316 34.7511 794.419 41.6645 810.338 57.1665C825.669 72.0569 831.721 94.1266 828.33 122.764C824.939 151.402 812.269 185.144 790.651 223.088C768.303 262.388 737.312 304.454 698.574 348.061C657.572 393.918 613.662 436.335 567.193 474.975C521.022 513.674 472.641 548.894 422.366 580.405C377.189 609.061 330.021 633.516 281.33 653.528C235.55 671.875 195.21 681.979 161.441 683.574C127.671 685.17 102.568 678.256 86.6485 662.754C71.318 647.864 65.2659 625.794 68.657 597.157C72.048 568.519 84.7175 534.776 106.336 496.832C128.684 457.532 159.651 415.467 198.413 371.859L198.389 371.966ZM195.634 371.859C35.3349 552.778 18.615 693.865 158.285 687.244C297.955 680.623 541.077 528.847 701.376 348.035C861.675 167.223 878.372 26.2955 738.702 32.7834C599.031 39.2714 355.886 191.154 195.611 371.966L195.634 371.859Z" stroke="#5CF843" stroke-opacity="0.1" stroke-width="2"/>
<path d="M203.852 334.553C248.148 290.143 295.384 249.617 345.147 213.329C393.778 177.561 444.609 145.759 497.251 118.164C548.517 91.414 597.288 71.312 642.219 58.4158C688.706 45.1208 729.045 39.9889 762.061 43.4456C795.077 46.9023 818.838 58.5753 832.709 78.2254C846.061 97.1841 849.617 122.737 843.282 154.14C836.948 185.543 821.052 221.253 796.043 260.234C770.139 300.571 735.545 342.663 693.203 385.446C648.911 429.863 601.675 470.389 551.908 506.67C503.288 542.443 452.465 574.246 399.828 601.836C348.561 628.586 299.791 648.688 254.859 661.584C208.349 674.879 168.033 680.011 134.994 676.554C101.954 673.097 78.2402 661.424 64.3462 641.774C51.0174 622.815 47.4614 597.263 53.7962 565.86C60.1309 534.457 76.0266 498.746 101.036 459.766C126.94 419.428 161.534 377.336 203.852 334.553V334.553ZM201.167 334.261C26.0552 511.031 -5.14742 665.865 131.461 680.064C268.07 694.263 520.729 562.509 695.817 385.739C870.905 208.968 902.132 54.1348 765.523 40.0687C628.914 26.0026 376.232 157.49 201.167 334.261Z" stroke="#5CF843" stroke-opacity="0.1" stroke-width="2"/>
<path d="M213.13 293.79C306.291 210.835 410.3 144.723 521.436 97.8221C574.139 75.9385 623.734 61.0481 668.807 53.6029C715.481 45.8917 755.256 46.5033 787.024 55.4376C818.791 64.3718 840.669 81.0969 852.043 105.134C862.993 128.374 863.818 157.41 854.28 191.446C844.743 225.481 825.55 262.866 797.079 302.459C767.619 343.461 729.493 385.074 683.76 426.209C636.485 468.496 586.247 506.378 533.54 539.482C482.832 571.669 429.967 599.319 375.431 622.177C322.704 644.061 273.133 658.951 228.037 666.396C181.386 674.107 141.611 673.496 109.82 664.562C78.0285 655.627 56.1984 638.902 44.8241 614.865C33.8502 591.625 33.0495 562.589 42.587 528.554C52.1244 494.518 71.3641 457.053 99.9057 417.54C129.366 376.539 167.492 334.925 213.201 293.79H213.13ZM210.61 293.073C21.5105 463.249 -25.2347 630.952 106.193 667.992C237.621 705.032 497.439 597.05 686.516 426.98C875.592 256.91 922.337 89.1005 790.933 52.0606C659.528 15.0208 399.616 123.003 210.587 293.073H210.61Z" stroke="#5CF843" stroke-opacity="0.1" stroke-width="2"/>
<path d="M226.483 249.784C276.461 210.238 329.414 175.716 384.733 146.615C437.044 118.741 491.414 96.089 547.222 78.9168C600.82 62.6437 650.65 53.7094 695.3 52.3268C741.527 50.9441 780.077 57.6448 810.149 72.6415C840.221 87.6383 859.602 109.548 868.127 138.133C876.346 165.733 874.014 198.226 861.18 234.734C848.346 271.242 825.668 309.904 793.782 349.683C760.813 390.844 719.273 431.367 670.432 470.162C620.447 509.697 567.495 544.219 512.181 573.332C459.869 601.201 405.499 623.853 349.692 641.03C296.094 657.303 246.264 666.237 201.615 667.62C155.364 669.002 116.838 662.169 86.7654 647.305C56.6931 632.441 37.3121 610.398 28.7638 581.814C20.5451 554.213 22.9 521.72 35.8285 485.212C48.757 448.704 71.3171 410.042 103.226 370.264C136.195 329.102 177.736 288.579 226.577 249.784H226.483ZM224.222 248.561C22.2407 408.979 -41.0124 588.913 82.9269 650.469C206.866 712.025 471.135 631.856 673.116 471.439C875.098 311.021 938.351 131.086 814.411 69.5305C690.472 7.97461 426.203 88.1435 224.198 248.561H224.222Z" stroke="#5CF843" stroke-opacity="0.1" stroke-width="2"/>
<path d="M244.119 202.746C296.384 166.69 351.583 136.364 408.964 112.181C462.483 89.2567 517.871 72.3348 574.326 61.6596C628.207 51.8213 677.636 49.5611 721.226 54.9589C766.346 60.7023 803.295 74.2898 830.871 95.4289C858.447 116.568 875.12 144.248 880.324 177.406C885.411 209.314 879.688 245.343 863.345 284.085C847.002 322.827 820.957 362.419 785.633 401.852C749.155 442.641 704.482 481.436 652.863 517.147C600.598 553.202 545.399 583.529 488.018 607.712C434.493 630.587 379.106 647.465 322.656 658.1C268.775 667.938 219.346 670.199 175.733 664.801C130.518 659.297 93.6873 645.842 66.0877 624.57C38.4881 603.298 21.8624 575.751 16.6344 542.593C11.5714 510.685 17.2703 474.656 33.6369 435.914C50.0036 397.172 76.1432 357.58 111.349 318.147C147.85 277.358 192.523 238.563 244.143 202.853L244.119 202.746ZM241.788 201.124C28.3148 348.699 -52.2705 539.482 61.8489 627.389C175.968 715.295 441.603 666.662 655.123 518.981C868.644 371.3 949.229 180.517 835.11 92.6103C720.99 4.70374 455.497 53.3369 241.859 201.018L241.788 201.124Z" stroke="#5CF843" stroke-opacity="0.1" stroke-width="2"/>
<path d="M266.26 153.05C320.415 121.144 377.418 95.8217 436.309 77.5076C490.534 60.3295 546.293 50.0637 602.542 46.9025C656.022 44.2435 704.345 49.3754 746.192 62.1652C789.523 75.4602 823.904 96.227 848.584 124.173C873.263 152.119 886.475 185.33 888.076 223.274C889.63 259.782 880.258 298.923 860.241 339.605C840.224 380.288 810.599 420.412 772.143 458.915C732.322 498.8 684.729 535.122 630.848 566.95C576.693 598.855 519.691 624.178 460.8 642.492C406.574 659.67 350.816 669.936 294.566 673.097C241.086 675.756 192.739 670.625 150.916 657.835C107.586 644.54 73.2038 623.773 48.5478 595.827C23.8918 567.881 10.4217 534.537 8.91456 496.726C7.36031 460.218 16.7329 421.077 36.7261 380.394C56.7194 339.712 86.3913 299.587 124.847 261.085C164.669 221.2 212.238 184.878 266.26 153.05V153.05ZM264.235 150.737C40.8237 282.437 -57.8709 482.872 43.9793 598.433C145.829 713.993 409.345 700.937 632.709 569.184C856.073 437.43 954.744 237.127 853.011 121.567C751.279 6.00707 487.646 19.0628 264.282 150.816L264.235 150.737Z" stroke="#5CF843" stroke-opacity="0.1" stroke-width="2"/>
<path d="M293.01 101.013C348.586 73.9831 406.818 54.5326 466.473 43.0733C520.93 32.2999 576.386 29.4671 631.482 34.6443C683.785 39.9623 730.389 53.2573 769.669 73.8646C810.409 95.2961 841.729 123.907 862.711 158.953C883.495 193.101 893.354 234.226 890.664 275.55C888.309 316.525 875.051 358.723 851.29 400.975C827.529 443.226 794.419 483.404 752.902 520.417C709.948 558.733 659.788 591.918 603.882 619.066C548.305 646.092 490.074 665.543 430.419 677.006C375.962 687.779 320.506 690.612 265.41 685.435C213.084 680.117 166.504 666.822 127.224 646.215C86.4599 624.783 55.1631 596.172 34.1807 561.127C13.4032 526.977 3.55964 485.848 6.27497 444.529C8.62988 403.554 21.8881 361.329 45.7434 319.104C69.5987 276.879 102.615 236.675 144.108 199.662C189.716 159.581 239.775 126.416 293.01 101.013V101.013ZM291.338 98.0881C60.0142 210.457 -57.1665 418.737 29.6357 563.413C116.438 708.09 374.301 734.228 605.649 621.911C836.996 509.595 954.176 301.316 867.351 156.586C780.525 11.8567 522.661 -14.175 291.338 98.0881Z" stroke="#5CF843" stroke-opacity="0.1" stroke-width="2"/>
<path d="M324.657 47.1417C381.181 25.6645 440.027 12.9536 499.58 9.35729C553.799 5.76194 608.191 11.1912 661.01 25.4708C711.358 39.4838 755.207 61.3674 791.331 90.5632C828.727 120.769 856.162 157.517 872.882 199.742C889.584 241.855 894.758 288.643 887.741 334.101C881.124 379.437 863.768 424.507 836.145 467.902C808.522 511.297 772.092 551.049 727.819 585.882C679.945 623.087 627.608 652.375 572.395 672.858C515.87 694.335 457.025 707.046 397.471 710.642C343.245 714.236 288.845 708.807 236.018 694.529C185.67 680.516 141.821 658.632 105.721 629.436C68.2538 599.23 40.7954 562.483 24.0755 520.258C7.37321 478.144 2.20652 431.353 9.23955 385.899C15.8569 340.563 33.2126 295.492 60.8122 252.098C88.4119 208.703 124.89 168.951 169.138 134.118C217.01 96.9086 269.348 67.6202 324.563 47.1417H324.657ZM323.174 43.685C86.2924 133.16 -49.7747 347.343 19.3892 522.039C88.5532 696.736 336.714 765.817 573.69 676.262C810.665 586.706 946.756 372.603 877.592 197.907C808.428 23.2107 560.267 -45.8702 323.268 43.685H323.174Z" stroke="#5CF843" stroke-opacity="0.1" stroke-width="2"/>
<path d="M361.089 -8.05908C418.136 -23.2384 476.923 -28.3333 535.353 -23.1622C588.909 -18.6606 641.431 -4.14898 690.777 19.7807C738.276 43.1799 778.639 74.3966 810.69 112.527C842.943 150.185 866.241 196.441 878.417 246.992C890.223 296.821 890.304 349.266 878.653 399.14C867.42 448.678 845.684 496.194 814.293 540.387C782.902 584.579 743.174 623.214 696.382 655.202C646.627 688.924 592.462 713.549 535.894 728.165C478.848 743.345 420.061 748.44 361.63 743.268C308.074 738.767 255.552 724.255 206.206 700.326C158.707 676.926 118.344 645.71 86.2935 607.58C53.1598 568.014 30.3407 522.784 18.5425 473.008C6.74837 423.177 6.6672 370.736 18.307 320.859C29.5635 271.322 51.2759 223.806 82.6669 179.613C114.058 135.421 153.809 96.8917 200.601 64.9039C250.354 31.1777 304.52 6.55223 361.089 -8.05908V-8.05908ZM360.123 -12.1274C120.039 51.0239 -35.0083 268.823 13.7856 474.364C62.5795 679.904 296.776 795.279 536.86 732.127C776.944 668.976 931.991 451.177 883.197 245.53C834.404 39.8827 600.207 -75.2787 360.123 -12.1274V-12.1274Z" stroke="#5CF843" stroke-opacity="0.1" stroke-width="2"/>
<path d="M402.397 -63.9778C459.512 -72.0912 517.451 -68.6699 573.505 -53.8736C625.871 -40.2489 675.586 -15.917 720.193 17.9194C762.748 50.0046 799.102 91.496 827.059 139.888C854.905 188.207 872.609 243.069 878.82 300.288C885.032 357.508 879.587 415.574 862.901 470.056C846.149 524.657 819.76 574.852 785.33 617.604C749.328 662.66 706.314 699.88 658.424 727.421C555.055 786.866 436.449 803.312 323.413 773.874C271.054 760.25 221.347 735.918 176.749 702.08C134.194 669.995 97.8398 628.504 69.8826 580.112C42.0252 531.8 24.3088 476.941 18.085 419.721C11.8612 362.501 17.2944 304.432 33.9701 249.944C50.7641 195.33 77.202 145.134 111.682 102.396C147.685 57.3404 190.698 20.1195 238.589 -7.42087C289.815 -37.091 345.304 -56.2413 402.468 -63.9778H402.397ZM401.949 -68.6577C161.748 -35.367 -12.2805 183.575 13.3881 420.333C39.0567 657.09 254.814 821.975 495.11 788.658C735.406 755.34 909.34 536.425 883.671 299.667C858.003 62.9097 642.175 -101.975 401.879 -68.6577H401.949Z" stroke="#5CF843" stroke-opacity="0.1" stroke-width="2"/>
<path d="M448.433 -119.95C546.497 -119.88 641.524 -81.537 717.419 -11.4168C793.313 58.7035 845.408 156.29 864.878 264.812C884.349 373.334 869.998 486.12 824.257 584.063C778.516 682.006 704.197 759.086 613.889 802.245C510.181 850.738 393.698 850.957 289.847 802.856C185.997 754.754 103.205 662.234 59.5328 545.477C15.86 428.72 14.8495 297.201 56.7217 179.606C98.5939 62.0111 179.951 -32.1165 283.047 -82.2454C335.369 -107.244 391.62 -120.067 448.433 -119.95V-119.95ZM448.433 -125.268C363.432 -125.268 280.34 -96.8076 209.664 -43.4857C138.988 9.83623 83.9033 85.6247 51.3748 174.296C18.8464 262.967 10.3354 360.538 26.9183 454.671C43.5012 548.804 84.433 635.27 144.538 703.136C204.643 771.002 281.221 817.219 364.588 835.943C447.956 854.667 534.369 845.058 612.9 808.329C691.43 771.6 758.552 709.402 805.776 629.6C853 549.798 878.205 455.977 878.205 360C878.205 296.273 867.089 233.171 845.491 174.296C823.893 115.42 792.236 61.9249 752.328 16.8636C712.42 -28.1977 665.042 -63.9423 612.9 -88.3293C560.757 -112.716 504.871 -125.268 448.433 -125.268V-125.268Z" stroke="#5CF843" stroke-opacity="0.1" stroke-width="2"/>
</svg>
