<svg width="477" height="335" viewBox="0 0 477 335" fill="none" xmlns="http://www.w3.org/2000/svg">
<path fill-rule="evenodd" clip-rule="evenodd" d="M238.5 63.6C141.905 63.6 63.6 141.905 63.6 238.5C63.6 335.095 141.905 413.4 238.5 413.4C335.095 413.4 413.4 335.095 413.4 238.5C413.4 141.905 335.095 63.6 238.5 63.6ZM0 238.5C0 106.78 106.78 0 238.5 0C370.22 0 477 106.78 477 238.5C477 370.22 370.22 477 238.5 477C106.78 477 0 370.22 0 238.5Z" fill="#F8C343"/>
<path fill-rule="evenodd" clip-rule="evenodd" d="M238.5 174.9C203.375 174.9 174.9 203.375 174.9 238.5C174.9 273.625 203.375 302.1 238.5 302.1C273.626 302.1 302.1 273.625 302.1 238.5C302.1 203.375 273.626 174.9 238.5 174.9ZM111.3 238.5C111.3 168.249 168.25 111.3 238.5 111.3C308.751 111.3 365.7 168.249 365.7 238.5C365.7 308.751 308.751 365.7 238.5 365.7C168.25 365.7 111.3 308.751 111.3 238.5Z" fill="#F8C343"/>
</svg>
