<svg width="231" height="231" viewBox="0 0 231 231" fill="none" xmlns="http://www.w3.org/2000/svg">
<path fill-rule="evenodd" clip-rule="evenodd" d="M115.5 30.8C68.7215 30.8 30.8 68.7215 30.8 115.5C30.8 162.279 68.7215 200.2 115.5 200.2C162.279 200.2 200.2 162.279 200.2 115.5C200.2 68.7215 162.279 30.8 115.5 30.8ZM0 115.5C0 51.7111 51.7111 0 115.5 0C179.289 0 231 51.7111 231 115.5C231 179.289 179.289 231 115.5 231C51.7111 231 0 179.289 0 115.5Z" fill="#F8C343"/>
<path fill-rule="evenodd" clip-rule="evenodd" d="M115.5 84.7C98.4898 84.7 84.7001 98.4896 84.7001 115.5C84.7001 132.51 98.4898 146.3 115.5 146.3C132.511 146.3 146.3 132.51 146.3 115.5C146.3 98.4896 132.511 84.7 115.5 84.7ZM53.9001 115.5C53.9001 81.4792 81.4794 53.9 115.5 53.9C149.521 53.9 177.1 81.4792 177.1 115.5C177.1 149.521 149.521 177.1 115.5 177.1C81.4794 177.1 53.9001 149.521 53.9001 115.5Z" fill="#F8C343"/>
</svg>
