<svg width="414" height="120" viewBox="0 0 414 120" fill="none" xmlns="http://www.w3.org/2000/svg">
<path d="M0 69.8773V119.884C0.607429 119.892 1.21575 119.896 1.82494 119.896C43.4725 119.896 81.0755 101.374 104.804 72.3099C128.532 101.374 166.135 119.896 207.782 119.896C249.43 119.896 287.033 101.374 310.761 72.3099C334.489 101.374 372.092 119.896 413.739 119.896C413.826 119.896 413.913 119.896 414 119.896V69.896C413.913 69.8962 413.826 69.8963 413.739 69.8963C370.276 69.8963 336.831 37.6741 336.831 0H284.69C284.69 37.6741 251.245 69.8963 207.782 69.8963C164.319 69.8963 130.874 37.6741 130.874 0H78.733C78.733 37.6741 45.2879 69.8963 1.82494 69.8963C1.21463 69.8963 0.606296 69.89 0 69.8773Z" fill="#F5F6F6"/>
</svg>
