<svg width="64" height="70" viewBox="0 0 64 70" fill="none" xmlns="http://www.w3.org/2000/svg">
<path fill-rule="evenodd" clip-rule="evenodd" d="M0 14.4286C0 9.37918 4.0934 5.28578 9.14286 5.28578H13.7143C16.239 5.28578 18.2857 7.33248 18.2857 9.85721C18.2857 12.3819 16.239 14.4286 13.7143 14.4286L9.14286 14.4286V60.1429H54.8571V14.4286H50.2857C47.761 14.4286 45.7143 12.3819 45.7143 9.85721C45.7143 7.33248 47.761 5.28578 50.2857 5.28578H54.8571C59.9066 5.28578 64 9.37918 64 14.4286V60.1429C64 65.1924 59.9066 69.2858 54.8571 69.2858H9.14286C4.09339 69.2858 0 65.1924 0 60.1429V14.4286Z" fill="#ABB4AE"/>
<path d="M4.57143 46.4286H18.2857L22.8571 55.5715H41.1429L45.7143 46.4286H59.4286V64.7144H4.57143V46.4286Z" fill="#ABB4AE"/>
<path d="M19.6247 24.9104C21.4099 23.1252 24.3044 23.1252 26.0896 24.9104L27.4286 26.2494V5.28578C27.4286 2.76106 29.4753 0.714355 32 0.714355C34.5247 0.714355 36.5714 2.76105 36.5714 5.28578V26.2494L37.9104 24.9104C39.6956 23.1252 42.5901 23.1252 44.3754 24.9104C46.1606 26.6957 46.1606 29.5902 44.3754 31.3754L35.2325 40.5183C34.3752 41.3756 33.2124 41.8572 32 41.8572C30.7876 41.8572 29.6248 41.3756 28.7675 40.5183L19.6247 31.3754C17.8394 29.5902 17.8394 26.6957 19.6247 24.9104Z" fill="#ABB4AE"/>
</svg>
