<svg width="36" height="39" viewBox="0 0 36 39" fill="none" xmlns="http://www.w3.org/2000/svg">
<path fill-rule="evenodd" clip-rule="evenodd" d="M0 7.81487C0 4.97455 2.30254 2.67201 5.14286 2.67201H7.71429C9.13445 2.67201 10.2857 3.82328 10.2857 5.24344C10.2857 6.6636 9.13445 7.81487 7.71429 7.81487L5.14286 7.81487V33.5292H30.8571V7.81487H28.2857C26.8656 7.81487 25.7143 6.6636 25.7143 5.24344C25.7143 3.82328 26.8656 2.67201 28.2857 2.67201H30.8571C33.6975 2.67201 36 4.97455 36 7.81487V33.5292C36 36.3695 33.6975 38.672 30.8571 38.672H5.14286C2.30253 38.672 0 36.3695 0 33.5292V7.81487Z" fill="#E260DD"/>
<path d="M2.57143 25.8149H10.2857L12.8571 30.9577H23.1429L25.7143 25.8149H33.4286V36.1006H2.57143V25.8149Z" fill="#E260DD"/>
<path d="M11.0389 13.7109C12.0431 12.7067 13.6712 12.7067 14.6754 13.7109L15.4286 14.464V2.67201C15.4286 1.25186 16.5798 0.100586 18 0.100586C19.4202 0.100586 20.5714 1.25185 20.5714 2.67201V14.464L21.3246 13.7109C22.3288 12.7067 23.9569 12.7067 24.9611 13.7109C25.9653 14.7151 25.9653 16.3432 24.9611 17.3474L19.8183 22.4903C19.336 22.9725 18.682 23.2434 18 23.2434C17.318 23.2434 16.664 22.9725 16.1817 22.4903L11.0389 17.3474C10.0347 16.3432 10.0347 14.7151 11.0389 13.7109Z" fill="#E260DD"/>
</svg>
