<svg width="33" height="32" viewBox="0 0 33 32" fill="none" xmlns="http://www.w3.org/2000/svg">
<path fill-rule="evenodd" clip-rule="evenodd" d="M0.25 16C0.25 7.16344 7.41344 0 16.25 0C25.0866 0 32.25 7.16344 32.25 16C32.25 24.8366 25.0866 32 16.25 32C7.41344 32 0.25 24.8366 0.25 16ZM22.35 11.5C23.05 11.4 23.65 11.3 24.25 11C23.85 11.7 23.25 12.3 22.55 12.7C22.75 17.4 19.35 22.5 13.25 22.5C11.45 22.5 9.75 21.9 8.25 21C9.95 21.2 11.75 20.7 12.95 19.8C11.45 19.8 10.25 18.8 9.85 17.5C10.35 17.6 10.85 17.5 11.35 17.4C9.85 17 8.75 15.6 8.75 14.1C9.25 14.3 9.75 14.5 10.25 14.5C8.85 13.5 8.35 11.6 9.25 10.1C10.95 12.1 13.35 13.4 16.05 13.5C15.55 11.5 17.15 9.5 19.25 9.5C20.15 9.5 21.05 9.9 21.65 10.5C22.45 10.3 23.15 10.1 23.75 9.7C23.55 10.5 23.05 11.1 22.35 11.5Z" fill="white"/>
</svg>
