<svg width="90" height="77" viewBox="0 0 90 77" fill="none" xmlns="http://www.w3.org/2000/svg">
<path opacity="0.6" d="M83.109 39.652L89.5003 46.089L59.6894 76.1738L43.8481 60.1955L50.2394 53.7586L59.6894 63.2542L83.109 39.652ZM32.435 60.1955L46.1307 73.8912H0.478516V64.7607C0.478516 54.6716 16.822 46.4999 37.0003 46.4999L45.6285 47.002L32.435 60.1955ZM37.0003 0.847656C41.8433 0.847656 46.4881 2.77156 49.9126 6.19614C53.3372 9.62072 55.2611 14.2654 55.2611 19.1085C55.2611 23.9516 53.3372 28.5963 49.9126 32.0209C46.4881 35.4455 41.8433 37.3694 37.0003 37.3694C32.1572 37.3694 27.5124 35.4455 24.0879 32.0209C20.6633 28.5963 18.7394 23.9516 18.7394 19.1085C18.7394 14.2654 20.6633 9.62072 24.0879 6.19614C27.5124 2.77156 32.1572 0.847656 37.0003 0.847656Z" fill="#7A897F"/>
</svg>
