<svg width="42" height="36" viewBox="0 0 42 36" fill="none" xmlns="http://www.w3.org/2000/svg">
<path d="M38.9846 18.5385L42 21.5754L27.9354 35.7693L20.4615 28.2308L23.4769 25.1939L27.9354 29.6739L38.9846 18.5385ZM15.0769 28.2308L21.5385 34.6923H0V30.3846C0 25.6246 7.71077 21.7692 17.2308 21.7692L21.3015 22.0062L15.0769 28.2308ZM17.2308 0.230774C19.5157 0.230774 21.7071 1.13846 23.3228 2.75416C24.9385 4.36986 25.8462 6.56122 25.8462 8.84616C25.8462 11.1311 24.9385 13.3225 23.3228 14.9382C21.7071 16.5539 19.5157 17.4616 17.2308 17.4616C14.9458 17.4616 12.7545 16.5539 11.1388 14.9382C9.52307 13.3225 8.61538 11.1311 8.61538 8.84616C8.61538 6.56122 9.52307 4.36986 11.1388 2.75416C12.7545 1.13846 14.9458 0.230774 17.2308 0.230774Z" fill="#46AC66"/>
</svg>
